<?xml version="1.0" encoding="UTF-8"?>
<svg version="1.1" xmlns="http://www.w3.org/2000/svg" width="225" height="225">
<path d="M0 0 C74.25 0 148.5 0 225 0 C225 74.25 225 148.5 225 225 C150.75 225 76.5 225 0 225 C0 150.75 0 76.5 0 0 Z " fill="#FEFEFE" transform="translate(0,0)"/>
<path d="M0 0 C4.87426487 0.38054892 8.73566852 1.68255371 12.9765625 4.18359375 C12.9765625 4.84359375 12.9765625 5.50359375 12.9765625 6.18359375 C13.6365625 6.18359375 14.2965625 6.18359375 14.9765625 6.18359375 C16.44921875 8.01171875 16.44921875 8.01171875 18.0390625 10.43359375 C18.56628906 11.2225 19.09351563 12.01140625 19.63671875 12.82421875 C21.86721682 16.75197628 22.09795351 19.95787683 22.0390625 24.43359375 C22.03003906 25.325625 22.02101562 26.21765625 22.01171875 27.13671875 C22.00011719 27.8121875 21.98851562 28.48765625 21.9765625 29.18359375 C22.97623047 28.94382812 22.97623047 28.94382812 23.99609375 28.69921875 C34.39196817 26.90071885 45.45192658 27.42127579 54.9765625 32.18359375 C54.9765625 32.84359375 54.9765625 33.50359375 54.9765625 34.18359375 C56.9565625 34.51359375 58.9365625 34.84359375 60.9765625 35.18359375 C61.1415625 34.50296875 61.3065625 33.82234375 61.4765625 33.12109375 C65.02106079 26.1797846 71.43017167 22.47548781 78.56640625 19.89453125 C81.72250138 18.96355991 84.70067426 18.4684536 87.9765625 18.18359375 C88.4715625 16.69859375 88.4715625 16.69859375 88.9765625 15.18359375 C89.6365625 15.18359375 90.2965625 15.18359375 90.9765625 15.18359375 C90.9765625 12.21359375 90.9765625 9.24359375 90.9765625 6.18359375 C91.3065625 6.18359375 91.6365625 6.18359375 91.9765625 6.18359375 C92.13932292 8.13671875 92.30208333 10.08984375 92.46484375 12.04296875 C93.12753803 14.81515551 93.95821017 16.15672516 95.9765625 18.18359375 C98.94066493 19.38713901 98.94066493 19.38713901 102.2890625 20.18359375 C110.28955009 22.47452139 115.08556758 25.52640622 119.9765625 32.18359375 C120.66970158 33.839426 121.34130674 35.50470354 121.9765625 37.18359375 C122.7190625 37.89515625 122.7190625 37.89515625 123.4765625 38.62109375 C127.31696474 42.62151274 127.23271531 48.20414403 127.2421875 53.4453125 C127.24410095 54.11778519 127.2460144 54.79025787 127.24798584 55.48310852 C127.24933859 56.89409767 127.24570617 58.30509966 127.23730469 59.71606445 C127.22654081 61.87544508 127.2372561 64.03400344 127.25 66.19335938 C127.24867923 67.56901225 127.24611854 68.94466461 127.2421875 70.3203125 C127.23993164 71.56514404 127.23767578 72.80997559 127.23535156 74.0925293 C126.9765625 77.18359375 126.9765625 77.18359375 124.9765625 80.18359375 C121.71875 80.4765625 121.71875 80.4765625 117.8515625 80.37109375 C115.92957031 80.33048828 115.92957031 80.33048828 113.96875 80.2890625 C112.98132813 80.25425781 111.99390625 80.21945313 110.9765625 80.18359375 C110.3165625 78.86359375 109.6565625 77.54359375 108.9765625 76.18359375 C107.9865625 76.18359375 106.9965625 76.18359375 105.9765625 76.18359375 C105.6465625 68.92359375 105.3165625 61.66359375 104.9765625 54.18359375 C102.9965625 53.68859375 102.9965625 53.68859375 100.9765625 53.18359375 C100.9765625 52.52359375 100.9765625 51.86359375 100.9765625 51.18359375 C98.77058326 50.93277693 96.56153671 50.70885524 94.3515625 50.49609375 C93.12179688 50.36847656 91.89203125 50.24085937 90.625 50.109375 C85.30755915 50.21754564 82.42605502 52.02472461 78.34033203 55.29125977 C75.35741102 58.9411942 75.26133137 61.77540853 75.3046875 66.29296875 C75.29193787 67.06038391 75.27918823 67.82779907 75.26605225 68.61846924 C75.22985125 71.05722388 75.22704385 73.49459444 75.2265625 75.93359375 C75.20496702 78.38636039 75.17656606 80.83891774 75.14422607 83.29156494 C75.12642371 84.81505365 75.11617621 86.33865238 75.11407471 87.86224365 C75.08508473 93.07507152 75.08508473 93.07507152 73.9765625 94.18359375 C71.33909494 94.31045181 68.73947084 94.36879992 66.1015625 94.37109375 C65.36808594 94.38333984 64.63460937 94.39558594 63.87890625 94.40820312 C60.04092736 94.41868941 58.24309176 94.36127992 54.9765625 92.18359375 C54.9765625 91.19359375 54.9765625 90.20359375 54.9765625 89.18359375 C53.9865625 89.18359375 52.9965625 89.18359375 51.9765625 89.18359375 C51.95150635 88.38139404 51.9264502 87.57919434 51.90063477 86.75268555 C51.78474207 83.12532301 51.66198499 79.49822458 51.5390625 75.87109375 C51.49974609 74.60845703 51.46042969 73.34582031 51.41992188 72.04492188 C51.37802734 70.83642578 51.33613281 69.62792969 51.29296875 68.3828125 C51.25631104 67.26737061 51.21965332 66.15192871 51.18188477 65.00268555 C51.08725041 62.10485804 51.08725041 62.10485804 49.9765625 59.18359375 C45.35027025 56.09939892 40.45467802 56.11981233 34.9765625 56.18359375 C30.9899322 57.08110738 27.46863002 58.86083706 24.9765625 62.18359375 C23.60391531 66.30153531 23.62705345 70.43016701 23.45898438 74.734375 C23.26884501 78.37213576 23.04579631 80.07974304 20.9765625 83.18359375 C21.37228006 85.97214497 21.37228006 85.97214497 22.9765625 88.18359375 C22.9765625 90.49359375 22.9765625 92.80359375 22.9765625 95.18359375 C50.0365625 95.18359375 77.0965625 95.18359375 104.9765625 95.18359375 C104.9765625 90.89359375 104.9765625 86.60359375 104.9765625 82.18359375 C111.5765625 82.18359375 118.1765625 82.18359375 124.9765625 82.18359375 C124.9765625 84.16359375 124.9765625 86.14359375 124.9765625 88.18359375 C125.9665625 88.18359375 126.9565625 88.18359375 127.9765625 88.18359375 C128.00121642 92.7225708 128.01940039 97.26150918 128.03149414 101.80053711 C128.0365339 103.34579141 128.0433657 104.89104091 128.05200195 106.4362793 C128.06408326 108.65284404 128.06979423 110.86934593 128.07421875 113.0859375 C128.07938004 113.78073715 128.08454132 114.4755368 128.08985901 115.19139099 C128.09005527 116.85588705 128.03845379 118.52024874 127.9765625 120.18359375 C126.31959006 121.84056619 124.36656255 121.31317824 122.08631897 121.31730652 C120.49831734 121.32370399 120.49831734 121.32370399 118.87823486 121.33023071 C117.12105133 121.32955093 117.12105133 121.32955093 115.32836914 121.32885742 C113.48954414 121.33389534 113.48954414 121.33389534 111.61357117 121.33903503 C108.24168396 121.34693092 104.8698583 121.35021398 101.49796605 121.35085082 C98.68719539 121.3517983 95.8764307 121.35547474 93.06566232 121.35902292 C86.43643134 121.36717509 79.80721394 121.36960646 73.17797852 121.36889648 C66.33027573 121.36829551 59.48265167 121.3788495 52.63496882 121.39464015 C46.76404926 121.407698 40.89315548 121.41308112 35.02222151 121.41244107 C31.51216744 121.41218556 28.00218329 121.41506573 24.49214363 121.42561913 C20.57944766 121.43706126 16.66686041 121.43256406 12.75415039 121.42651367 C11.0000032 121.43494293 11.0000032 121.43494293 9.2104187 121.44354248 C7.61818733 121.43725075 7.61818733 121.43725075 5.99378967 121.43083191 C5.06776475 121.43137668 4.14173983 121.43192144 3.18765354 121.43248272 C0.9765625 121.18359375 0.9765625 121.18359375 -1.0234375 119.18359375 C-1.0234375 118.19359375 -1.0234375 117.20359375 -1.0234375 116.18359375 C-1.6834375 116.18359375 -2.3434375 116.18359375 -3.0234375 116.18359375 C-3.0234375 85.82359375 -3.0234375 55.46359375 -3.0234375 24.18359375 C-6.3234375 23.52359375 -9.6234375 22.86359375 -13.0234375 22.18359375 C-13.3534375 20.53359375 -13.6834375 18.88359375 -14.0234375 17.18359375 C-15.0134375 17.18359375 -16.0034375 17.18359375 -17.0234375 17.18359375 C-15.54744405 13.62057731 -13.58377736 11.70846357 -10.6484375 9.24609375 C-7.89749869 6.91434562 -6.00980937 5.16272568 -4.0234375 2.12109375 C-2.0234375 0.18359375 -2.0234375 0.18359375 0 0 Z " fill="#54EA03" transform="translate(53.0234375,49.81640625)"/>
<path d="M0 0 C6.6 0 13.2 0 20 0 C20 1.98 20 3.96 20 6 C20.99 6 21.98 6 23 6 C23.02465392 10.53897705 23.04283789 15.07791543 23.05493164 19.61694336 C23.0599714 21.16219766 23.0668032 22.70744716 23.07543945 24.25268555 C23.08752076 26.46925029 23.09323173 28.68575218 23.09765625 30.90234375 C23.10281754 31.5971434 23.10797882 32.29194305 23.11329651 33.00779724 C23.11349277 34.6722933 23.06189129 36.33665499 23 38 C21.34302756 39.65697244 19.39000005 39.12958449 17.10975647 39.13371277 C15.52175484 39.14011024 15.52175484 39.14011024 13.90167236 39.14663696 C12.14448883 39.14595718 12.14448883 39.14595718 10.35180664 39.14526367 C8.51298164 39.15030159 8.51298164 39.15030159 6.63700867 39.15544128 C3.26512146 39.16333717 -0.1067042 39.16662023 -3.47859645 39.16725707 C-6.28936711 39.16820455 -9.1001318 39.17188099 -11.91090018 39.17542917 C-18.54013116 39.18358134 -25.16934856 39.18601271 -31.79858398 39.18530273 C-38.64628677 39.18470176 -45.49391083 39.19525575 -52.34159368 39.2110464 C-58.21251324 39.22410425 -64.08340702 39.22948737 -69.95434099 39.22884732 C-73.46439506 39.22859181 -76.97437921 39.23147198 -80.48441887 39.24202538 C-84.39711484 39.25346751 -88.30970209 39.24897031 -92.22241211 39.24291992 C-93.39184357 39.24853943 -94.56127502 39.25415894 -95.7661438 39.25994873 C-97.35837517 39.253657 -97.35837517 39.253657 -98.98277283 39.24723816 C-99.90879775 39.24778293 -100.83482267 39.24832769 -101.78890896 39.24888897 C-104 39 -104 39 -106 37 C-106 36.01 -106 35.02 -106 34 C-106.66 34 -107.32 34 -108 34 C-108 23.11 -108 12.22 -108 1 C-101.4 1 -94.8 1 -88 1 C-88 4.96 -88 8.92 -88 13 C-58.96 13 -29.92 13 0 13 C0 8.71 0 4.42 0 0 Z " fill="#13A8B5" transform="translate(158,132)"/>
<path d="M0 0 C3.76854223 1.25618074 4.07958456 2.66014706 6 6 C6.99 6.495 6.99 6.495 8 7 C11.37828294 15.77709338 11.37169405 24.73362225 11.1875 34 C11.17396484 35.29550781 11.16042969 36.59101562 11.14648438 37.92578125 C11.12050261 40.30868004 11.08831519 42.69152603 11.04760742 45.07421875 C10.97818753 49.34051587 11.02511438 53.59927186 11.1026001 57.86500549 C11.15590567 61.08248454 11.18850133 64.30006166 11.21972656 67.51782227 C11.23993134 69.21616439 11.26729157 70.91443626 11.30175781 72.61254883 C11.35020641 75.06609037 11.37293968 77.51872436 11.390625 79.97265625 C11.41127014 80.73208023 11.43191528 81.49150421 11.45318604 82.27394104 C11.45543591 87.54340081 11.45543591 87.54340081 9.30302048 89.70131397 C6.54053021 91.25909756 4.85786798 91.37013202 1.6975708 91.36076355 C0.62347458 91.36488754 -0.45062164 91.36901154 -1.55726624 91.3732605 C-2.73042892 91.36247467 -3.90359161 91.35168884 -5.11230469 91.34057617 C-6.97123604 91.34123329 -6.97123604 91.34123329 -8.86772156 91.34190369 C-12.26221948 91.34017218 -15.65616954 91.32513079 -19.05057049 91.30418181 C-22.59931002 91.28542343 -26.14805692 91.28366524 -29.69683838 91.28010559 C-36.4151845 91.27078264 -43.13338412 91.24616555 -49.85166574 91.21605712 C-57.50092721 91.18252084 -65.15019569 91.16602906 -72.79951239 91.15097082 C-88.5330931 91.11961615 -104.26652765 91.06685088 -120 91 C-122.046875 87.28125 -122.046875 87.28125 -121.625 84.75 C-121.41875 84.1725 -121.2125 83.595 -121 83 C-120.34 84.32 -119.68 85.64 -119 87 C-77.42 87 -35.84 87 7 87 C7.33 76.44 7.66 65.88 8 55 C7.01 55 6.02 55 5 55 C5 53.02 5 51.04 5 49 C-1.6 49 -8.2 49 -15 49 C-15 53.29 -15 57.58 -15 62 C-42.06 62 -69.12 62 -97 62 C-97.33 59.69 -97.66 57.38 -98 55 C-98.66 54.34 -99.32 53.68 -100 53 C-99.44444444 48.44444444 -99.44444444 48.44444444 -98 47 C-97.79629684 43.90672978 -97.65389648 40.82123371 -97.5703125 37.72265625 C-97.32097124 32.43454369 -95.87314585 29.40833038 -92.6875 25.3125 C-87.48650639 21.26728275 -82.02521673 21.95103335 -75.8046875 22.41796875 C-72.73688222 23.05460244 -71.24137974 23.8360873 -69 26 C-67.90088451 29.29734646 -67.8860544 31.72958745 -67.90234375 35.19921875 C-67.90556641 36.40771484 -67.90878906 37.61621094 -67.91210938 38.86132812 C-67.92467773 40.7552832 -67.92467773 40.7552832 -67.9375 42.6875 C-67.94201172 43.96173828 -67.94652344 45.23597656 -67.95117188 46.54882812 C-67.96297127 49.69926564 -67.97943403 52.84960949 -68 56 C-67.01 56 -66.02 56 -65 56 C-64.67 56.99 -64.34 57.98 -64 59 C-60.81175432 60.59412284 -57.37103338 60.10174735 -53.875 60.0625 C-53.12089844 60.05798828 -52.36679688 60.05347656 -51.58984375 60.04882812 C-49.72652873 60.03703499 -47.86325445 60.01909942 -46 60 C-45.99589111 58.96593018 -45.99178223 57.93186035 -45.98754883 56.86645508 C-45.96572133 53.01748302 -45.91139574 49.16952802 -45.84741211 45.32104492 C-45.82426334 43.65773288 -45.80984369 41.9942749 -45.80444336 40.33081055 C-45.7951302 37.93446249 -45.75409449 35.54039941 -45.70703125 33.14453125 C-45.7109639 32.4047554 -45.71489655 31.66497955 -45.71894836 30.90278625 C-45.60744743 26.92736783 -45.16953908 25.20211577 -42.58081055 22.1159668 C-41.72914307 21.41769775 -40.87747559 20.71942871 -40 20 C-39.34 19.34 -38.68 18.68 -38 18 C-32.72204521 15.28562325 -27.67973324 15.41128757 -22.0625 17 C-21.051875 17.33 -20.04125 17.66 -19 18 C-19 18.66 -19 19.32 -19 20 C-18.360625 20.12375 -17.72125 20.2475 -17.0625 20.375 C-16.381875 20.58125 -15.70125 20.7875 -15 21 C-13.79970092 23.40059817 -13.88540257 24.89360649 -13.90234375 27.5703125 C-13.90717773 28.91416016 -13.90717773 28.91416016 -13.91210938 30.28515625 C-13.92467773 31.69087891 -13.92467773 31.69087891 -13.9375 33.125 C-13.94201172 34.06988281 -13.94652344 35.01476562 -13.95117188 35.98828125 C-13.96297643 38.32558387 -13.97944241 40.66276061 -14 43 C-13.01 43 -12.02 43 -11 43 C-10.34 43.99 -9.68 44.98 -9 46 C-5.64496524 46.36558117 -5.64496524 46.36558117 -1.875 46.1875 C-0.59367187 46.16042969 0.68765625 46.13335937 2.0078125 46.10546875 C2.99523437 46.07066406 3.98265625 46.03585938 5 46 C7.16446993 41.67106014 6.1858486 35.85408139 6.18530273 31.04394531 C6.18747053 28.90408885 6.20557497 26.76476392 6.22460938 24.625 C6.34714403 14.62403955 6.34714403 14.62403955 4 5 C3.01 4.67 2.02 4.34 1 4 C0.3125 1.9375 0.3125 1.9375 0 0 Z " fill="#FCFDFD" transform="translate(173,83)"/>
<path d="M0 0 C6.6 0 13.2 0 20 0 C20 1.98 20 3.96 20 6 C20.99 6 21.98 6 23 6 C23.02465392 10.53897705 23.04283789 15.07791543 23.05493164 19.61694336 C23.0599714 21.16219766 23.0668032 22.70744716 23.07543945 24.25268555 C23.08752076 26.46925029 23.09323173 28.68575218 23.09765625 30.90234375 C23.10281754 31.5971434 23.10797882 32.29194305 23.11329651 33.00779724 C23.11349277 34.6722933 23.06189129 36.33665499 23 38 C21.34302756 39.65697244 19.39000005 39.12958449 17.10975647 39.13371277 C15.52175484 39.14011024 15.52175484 39.14011024 13.90167236 39.14663696 C12.14448883 39.14595718 12.14448883 39.14595718 10.35180664 39.14526367 C8.51298164 39.15030159 8.51298164 39.15030159 6.63700867 39.15544128 C3.26512146 39.16333717 -0.1067042 39.16662023 -3.47859645 39.16725707 C-6.28936711 39.16820455 -9.1001318 39.17188099 -11.91090018 39.17542917 C-18.54013116 39.18358134 -25.16934856 39.18601271 -31.79858398 39.18530273 C-38.64628677 39.18470176 -45.49391083 39.19525575 -52.34159368 39.2110464 C-58.21251324 39.22410425 -64.08340702 39.22948737 -69.95434099 39.22884732 C-73.46439506 39.22859181 -76.97437921 39.23147198 -80.48441887 39.24202538 C-84.39711484 39.25346751 -88.30970209 39.24897031 -92.22241211 39.24291992 C-93.39184357 39.24853943 -94.56127502 39.25415894 -95.7661438 39.25994873 C-97.35837517 39.253657 -97.35837517 39.253657 -98.98277283 39.24723816 C-99.90879775 39.24778293 -100.83482267 39.24832769 -101.78890896 39.24888897 C-104 39 -104 39 -106 37 C-106 35.68 -106 34.36 -106 33 C-64.42 32.505 -64.42 32.505 -22 32 C-22 31.34 -22 30.68 -22 30 C-16.72 30 -11.44 30 -6 30 C-6 29.34 -6 28.68 -6 28 C1.92 28 9.84 28 18 28 C18 19.42 18 10.84 18 2 C14.04 1.67 10.08 1.34 6 1 C5.67 1.99 5.34 2.98 5 4 C4.01 3.67 3.02 3.34 2 3 C2 8.61 2 14.22 2 20 C0.68 19.67 -0.64 19.34 -2 19 C-2.66 19.33 -3.32 19.66 -4 20 C-4.763125 19.835 -5.52625 19.67 -6.3125 19.5 C-9.29569829 18.94498636 -11.04387886 19.40792386 -14 20 C-16.01857974 20.11405904 -18.04074079 20.17472023 -20.0625 20.1875 C-21.08472656 20.20167969 -22.10695313 20.21585938 -23.16015625 20.23046875 C-25.98043159 20.00158808 -27.6055336 19.45275779 -30 18 C-29.01 17.67 -28.02 17.34 -27 17 C-27.99 16.34 -28.98 15.68 -30 15 C-30 14.34 -30 13.68 -30 13 C-20.1 13 -10.2 13 0 13 C0 8.71 0 4.42 0 0 Z " fill="#25808D" transform="translate(158,132)"/>
<path d="M0 0 C1.20269531 -0.00773437 2.40539062 -0.01546875 3.64453125 -0.0234375 C7.49919746 0.41005308 9.90604267 1.33426887 13.1875 3.375 C15.74531522 7.21172283 15.44056456 10.32035987 15.3828125 14.76171875 C15.3799826 15.57872757 15.37715271 16.39573639 15.37423706 17.23750305 C15.36304541 19.84598459 15.3379429 22.4541223 15.3125 25.0625 C15.30246888 26.83137525 15.29334326 28.60025588 15.28515625 30.36914062 C15.26481122 34.704666 15.22566134 39.0394483 15.1875 43.375 C5.2875 43.375 -4.6125 43.375 -14.8125 43.375 C-14.4825 31.825 -14.1525 20.275 -13.8125 8.375 C-12.8225 8.045 -11.8325 7.715 -10.8125 7.375 C-10.45837656 6.04703709 -10.12728446 4.71283393 -9.8125 3.375 C-7.22842065 -0.38698125 -4.31428521 -0.02756732 0 0 Z " fill="#FCFDFD" transform="translate(142.8125,101.625)"/>
<path d="M0 0 C3.76854223 1.25618074 4.07958456 2.66014706 6 6 C6.99 6.495 6.99 6.495 8 7 C11.37828294 15.77709338 11.37169405 24.73362225 11.1875 34 C11.17396484 35.29550781 11.16042969 36.59101562 11.14648438 37.92578125 C11.12050261 40.30868004 11.08831519 42.69152603 11.04760742 45.07421875 C10.97818753 49.34051587 11.02511438 53.59927186 11.1026001 57.86500549 C11.15590567 61.08248454 11.18850133 64.30006166 11.21972656 67.51782227 C11.23993134 69.21616439 11.26729157 70.91443626 11.30175781 72.61254883 C11.35020641 75.06609037 11.37293968 77.51872436 11.390625 79.97265625 C11.41127014 80.73208023 11.43191528 81.49150421 11.45318604 82.27394104 C11.45543591 87.54340081 11.45543591 87.54340081 9.30302048 89.70131397 C6.54053021 91.25909756 4.85786798 91.37013202 1.6975708 91.36076355 C0.62347458 91.36488754 -0.45062164 91.36901154 -1.55726624 91.3732605 C-2.73042892 91.36247467 -3.90359161 91.35168884 -5.11230469 91.34057617 C-6.97123604 91.34123329 -6.97123604 91.34123329 -8.86772156 91.34190369 C-12.26221948 91.34017218 -15.65616954 91.32513079 -19.05057049 91.30418181 C-22.59931002 91.28542343 -26.14805692 91.28366524 -29.69683838 91.28010559 C-36.4151845 91.27078264 -43.13338412 91.24616555 -49.85166574 91.21605712 C-57.50092721 91.18252084 -65.15019569 91.16602906 -72.79951239 91.15097082 C-88.5330931 91.11961615 -104.26652765 91.06685088 -120 91 C-122.046875 87.28125 -122.046875 87.28125 -121.625 84.75 C-121.41875 84.1725 -121.2125 83.595 -121 83 C-120.34 84.32 -119.68 85.64 -119 87 C-77.42 87 -35.84 87 7 87 C7.33 76.44 7.66 65.88 8 55 C7.01 55 6.02 55 5 55 C5 53.02 5 51.04 5 49 C-1.6 49 -8.2 49 -15 49 C-15.8218873 45.71245082 -16.1013103 43.62455542 -16.02734375 40.33984375 C-16.01509766 39.46392578 -16.00285156 38.58800781 -15.99023438 37.68554688 C-15.95500168 35.84953189 -15.91592241 34.01358679 -15.87304688 32.17773438 C-15.85661133 30.86579102 -15.85661133 30.86579102 -15.83984375 29.52734375 C-15.82300537 28.73062256 -15.80616699 27.93390137 -15.78881836 27.11303711 C-15.86343654 24.69653897 -15.86343654 24.69653897 -18 22 C-22.0120311 19.85018405 -25.62190529 19.70184107 -30.125 19.6875 C-31.34445313 19.67074219 -32.56390625 19.65398437 -33.8203125 19.63671875 C-36.94557357 19.73362035 -36.94557357 19.73362035 -38.8671875 21.33203125 C-40.18984472 23.11719757 -40.18984472 23.11719757 -41 26 C-41.66 26.33 -42.32 26.66 -43 27 C-43.03758423 28.53708618 -43.03758423 28.53708618 -43.07592773 30.10522461 C-43.16984484 33.89409676 -43.27010317 37.68277881 -43.37231445 41.47143555 C-43.41572297 43.11364303 -43.45739358 44.75589739 -43.49731445 46.39819336 C-43.5548744 48.75388745 -43.61860892 51.10934428 -43.68359375 53.46484375 C-43.70030624 54.20339096 -43.71701874 54.94193817 -43.73423767 55.7028656 C-43.88612829 60.88612829 -43.88612829 60.88612829 -45 62 C-46.56172745 62.08685603 -48.12729344 62.10702219 -49.69140625 62.09765625 C-50.63564453 62.09443359 -51.57988281 62.09121094 -52.55273438 62.08789062 C-53.54595703 62.07951172 -54.53917969 62.07113281 -55.5625 62.0625 C-56.55958984 62.05798828 -57.55667969 62.05347656 -58.58398438 62.04882812 C-61.05604849 62.03700007 -63.52799518 62.02051849 -66 62 C-66.66 60.02 -67.32 58.04 -68 56 C-67.01 56 -66.02 56 -65 56 C-64.67 56.99 -64.34 57.98 -64 59 C-60.81175432 60.59412284 -57.37103338 60.10174735 -53.875 60.0625 C-53.12089844 60.05798828 -52.36679688 60.05347656 -51.58984375 60.04882812 C-49.72652873 60.03703499 -47.86325445 60.01909942 -46 60 C-45.99589111 58.96593018 -45.99178223 57.93186035 -45.98754883 56.86645508 C-45.96572133 53.01748302 -45.91139574 49.16952802 -45.84741211 45.32104492 C-45.82426334 43.65773288 -45.80984369 41.9942749 -45.80444336 40.33081055 C-45.7951302 37.93446249 -45.75409449 35.54039941 -45.70703125 33.14453125 C-45.7109639 32.4047554 -45.71489655 31.66497955 -45.71894836 30.90278625 C-45.60744743 26.92736783 -45.16953908 25.20211577 -42.58081055 22.1159668 C-41.72914307 21.41769775 -40.87747559 20.71942871 -40 20 C-39.34 19.34 -38.68 18.68 -38 18 C-32.72204521 15.28562325 -27.67973324 15.41128757 -22.0625 17 C-21.051875 17.33 -20.04125 17.66 -19 18 C-19 18.66 -19 19.32 -19 20 C-18.360625 20.12375 -17.72125 20.2475 -17.0625 20.375 C-16.381875 20.58125 -15.70125 20.7875 -15 21 C-13.79970092 23.40059817 -13.88540257 24.89360649 -13.90234375 27.5703125 C-13.90717773 28.91416016 -13.90717773 28.91416016 -13.91210938 30.28515625 C-13.92467773 31.69087891 -13.92467773 31.69087891 -13.9375 33.125 C-13.94201172 34.06988281 -13.94652344 35.01476562 -13.95117188 35.98828125 C-13.96297643 38.32558387 -13.97944241 40.66276061 -14 43 C-13.01 43 -12.02 43 -11 43 C-10.34 43.99 -9.68 44.98 -9 46 C-5.64496524 46.36558117 -5.64496524 46.36558117 -1.875 46.1875 C-0.59367187 46.16042969 0.68765625 46.13335937 2.0078125 46.10546875 C2.99523437 46.07066406 3.98265625 46.03585938 5 46 C7.16446993 41.67106014 6.1858486 35.85408139 6.18530273 31.04394531 C6.18747053 28.90408885 6.20557497 26.76476392 6.22460938 24.625 C6.34714403 14.62403955 6.34714403 14.62403955 4 5 C3.01 4.67 2.02 4.34 1 4 C0.3125 1.9375 0.3125 1.9375 0 0 Z " fill="#D2D2D2" transform="translate(173,83)"/>
<path d="M0 0 C0.20625 0.61875 0.4125 1.2375 0.625 1.875 C2.58154574 4.89875251 4.56837478 5.17640995 8 6 C9.32 6 10.64 6 12 6 C11.34 8.31 10.68 10.62 10 13 C10.66 13.66 11.32 14.32 12 15 C12.17163731 17.56292317 12.23264558 20.00345857 12.1875 22.5625 C12.18685547 23.26052734 12.18621094 23.95855469 12.18554688 24.67773438 C12.14031158 29.85968842 12.14031158 29.85968842 11 31 C10.84111908 33.28988781 10.74861927 35.58443441 10.68359375 37.87890625 C10.66281265 38.5655687 10.64203156 39.25223114 10.62062073 39.95970154 C10.55505857 42.16052935 10.49620985 44.36147975 10.4375 46.5625 C10.39432108 48.05144514 10.350707 49.54037773 10.30664062 51.02929688 C10.1993707 54.68606553 10.09812228 58.34297318 10 62 C11.12148438 61.98259766 11.12148438 61.98259766 12.265625 61.96484375 C13.74289063 61.95130859 13.74289063 61.95130859 15.25 61.9375 C16.22453125 61.92589844 17.1990625 61.91429687 18.203125 61.90234375 C20.65758678 61.98804423 22.66168914 62.29293934 25 63 C24.505 64.98 24.505 64.98 24 67 C24.99 67 25.98 67 27 67 C27 62.71 27 58.42 27 54 C26.01 53.505 26.01 53.505 25 53 C25.66 52.01 26.32 51.02 27 50 C27.39387788 47.67612053 27.73486085 45.34206251 28 43 C28.61875 42.87625 29.2375 42.7525 29.875 42.625 C32.19120832 42.12802644 32.19120832 42.12802644 34 40 C35.32 40.66 36.64 41.32 38 42 C37.071875 42.556875 36.14375 43.11375 35.1875 43.6875 C31.55593168 46.32216721 29.42166958 48.43899121 28.67114258 52.99731445 C28.48282101 55.27301336 28.37999242 57.52977094 28.3125 59.8125 C28.209375 62.514375 28.10625 65.21625 28 68 C22.06 68 16.12 68 10 68 C10.495 68.99 10.495 68.99 11 70 C16.61 70 22.22 70 28 70 C28.103125 67.834375 28.20625 65.66875 28.3125 63.4375 C29.25020248 51.3569693 29.25020248 51.3569693 33.77734375 47.4765625 C39.81852675 43.52193638 45.9313549 43.02818917 53 44 C55.29296875 44.77734375 55.29296875 44.77734375 57 46 C57.75 48.125 57.75 48.125 58 50 C56.865625 49.649375 55.73125 49.29875 54.5625 48.9375 C48.79505265 47.50586413 43.57871675 47.87881881 38.125 50.25 C34.4676869 53.26190491 33.12704903 55.94538064 32.55859375 60.6640625 C32.51863281 61.97117188 32.47867188 63.27828125 32.4375 64.625 C32.20856995 71.68714507 32.20856995 71.68714507 30 75 C30.39571756 77.78855122 30.39571756 77.78855122 32 80 C32.04092937 82.33297433 32.04241723 84.66705225 32 87 C30.02 87 28.04 87 26 87 C26 83.04 26 79.08 26 75 C19.4 75 12.8 75 6 75 C6 55.53 6 36.06 6 16 C2.7 15.34 -0.6 14.68 -4 14 C-4.33 12.35 -4.66 10.7 -5 9 C-5.99 9 -6.98 9 -8 9 C-6.4169423 4.7257442 -3.49431596 2.73468206 0 0 Z " fill="#6CFB03" transform="translate(44,58)"/>
<path d="M0 0 C6.6 0 13.2 0 20 0 C20 3.96 20 7.92 20 12 C31.22 12 42.44 12 54 12 C54 12.66 54 13.32 54 14 C52.35 14.33 50.7 14.66 49 15 C51.64 15.33 54.28 15.66 57 16 C47.27758512 22.48160992 27.4248555 19.09678295 16 19 C14.13385719 13.40157158 13.91318242 8.90359519 14 3 C9.545 3.495 9.545 3.495 5 4 C4.93941406 5.49273437 4.87882812 6.98546875 4.81640625 8.5234375 C4.73200827 10.47396862 4.6473599 12.42448892 4.5625 14.375 C4.50352539 15.85226563 4.50352539 15.85226563 4.44335938 17.359375 C4.40146484 18.30039063 4.35957031 19.24140625 4.31640625 20.2109375 C4.27974854 21.08024902 4.24309082 21.94956055 4.20532227 22.84521484 C4 25 4 25 3 27 C17.19 27 31.38 27 46 27 C46.495 28.98 46.495 28.98 47 31 C45.42926468 32.57073532 43.84637782 32.16369307 41.66381836 32.20532227 C40.7429393 32.22526749 39.82206024 32.24521271 38.87327576 32.26576233 C37.37172691 32.29083107 37.37172691 32.29083107 35.83984375 32.31640625 C34.82024063 32.33718735 33.80063751 32.35796844 32.75013733 32.37937927 C29.47932952 32.44498852 26.20843863 32.50381234 22.9375 32.5625 C20.72590272 32.60567442 18.51431397 32.64928834 16.30273438 32.69335938 C10.86857363 32.80151203 5.43435376 32.90050073 0 33 C0 22.11 0 11.22 0 0 Z " fill="#05D3D8" transform="translate(50,133)"/>
<path d="M0 0 C0.33 0.66 0.66 1.32 1 2 C3.52733235 2.65555119 3.52733235 2.65555119 6 3 C6 3.99 6 4.98 6 6 C8.64 6.66 11.28 7.32 14 8 C14 25.82 14 43.64 14 62 C14.99 62 15.98 62 17 62 C17.33 62.66 17.66 63.32 18 64 C23.61 64 29.22 64 35 64 C35.103125 61.834375 35.20625 59.66875 35.3125 57.4375 C36.25020248 45.3569693 36.25020248 45.3569693 40.77734375 41.4765625 C46.81852675 37.52193638 52.9313549 37.02818917 60 38 C62.29296875 38.77734375 62.29296875 38.77734375 64 40 C64.75 42.125 64.75 42.125 65 44 C63.865625 43.649375 62.73125 43.29875 61.5625 42.9375 C55.79505265 41.50586413 50.57871675 41.87881881 45.125 44.25 C41.4676869 47.26190491 40.12704903 49.94538064 39.55859375 54.6640625 C39.51863281 55.97117188 39.47867188 57.27828125 39.4375 58.625 C39.20856995 65.68714507 39.20856995 65.68714507 37 69 C37.39571756 71.78855122 37.39571756 71.78855122 39 74 C39.04092937 76.33297433 39.04241723 78.66705225 39 81 C37.02 81 35.04 81 33 81 C33 77.04 33 73.08 33 69 C26.4 69 19.8 69 13 69 C13 49.53 13 30.06 13 10 C9.7 9.34 6.4 8.68 3 8 C2.67 6.35 2.34 4.7 2 3 C1.01 3 0.02 3 -1 3 C-0.67 2.01 -0.34 1.02 0 0 Z " fill="#B6B7B8" transform="translate(37,64)"/>
<path d="M0 0 C3.76854223 1.25618074 4.07958456 2.66014706 6 6 C6.99 6.495 6.99 6.495 8 7 C10.02857334 11.66865605 10.26788336 16.01264967 10.1953125 21.0234375 C10.1924826 21.76961334 10.18965271 22.51578918 10.18673706 23.28457642 C10.17561687 25.64821988 10.15052821 28.01147268 10.125 30.375 C10.11495962 31.98567158 10.10583562 33.59634915 10.09765625 35.20703125 C10.0757044 39.13816944 10.04123185 43.06901867 10 47 C8.02 47.99 8.02 47.99 6 49 C6 50.32 6 51.64 6 53 C6.99 53 7.98 53 9 53 C9 63.23 9 73.46 9 84 C8.67 84 8.34 84 8 84 C8 74.43 8 64.86 8 55 C7.01 55 6.02 55 5 55 C5 53.02 5 51.04 5 49 C-1.6 49 -8.2 49 -15 49 C-15.8218873 45.71245082 -16.1013103 43.62455542 -16.02734375 40.33984375 C-16.00897461 39.0259668 -16.00897461 39.0259668 -15.99023438 37.68554688 C-15.95500168 35.84953189 -15.91592241 34.01358679 -15.87304688 32.17773438 C-15.85661133 30.86579102 -15.85661133 30.86579102 -15.83984375 29.52734375 C-15.82300537 28.73062256 -15.80616699 27.93390137 -15.78881836 27.11303711 C-15.86343654 24.69653897 -15.86343654 24.69653897 -18 22 C-22.0120311 19.85018405 -25.62190529 19.70184107 -30.125 19.6875 C-31.34445313 19.67074219 -32.56390625 19.65398437 -33.8203125 19.63671875 C-36.94557357 19.73362035 -36.94557357 19.73362035 -38.8671875 21.33203125 C-40.18984472 23.11719757 -40.18984472 23.11719757 -41 26 C-41.66 26.33 -42.32 26.66 -43 27 C-43.02505615 28.02472412 -43.0501123 29.04944824 -43.07592773 30.10522461 C-43.16984484 33.89409676 -43.27010317 37.68277881 -43.37231445 41.47143555 C-43.41572297 43.11364303 -43.45739358 44.75589739 -43.49731445 46.39819336 C-43.5548744 48.75388745 -43.61860892 51.10934428 -43.68359375 53.46484375 C-43.70866249 54.57266457 -43.70866249 54.57266457 -43.73423767 55.7028656 C-43.88612829 60.88612829 -43.88612829 60.88612829 -45 62 C-46.56172745 62.08685603 -48.12729344 62.10702219 -49.69140625 62.09765625 C-50.63564453 62.09443359 -51.57988281 62.09121094 -52.55273438 62.08789062 C-53.54595703 62.07951172 -54.53917969 62.07113281 -55.5625 62.0625 C-56.55958984 62.05798828 -57.55667969 62.05347656 -58.58398438 62.04882812 C-61.05604849 62.03700007 -63.52799518 62.02051849 -66 62 C-66.66 60.02 -67.32 58.04 -68 56 C-67.01 56 -66.02 56 -65 56 C-64.67 56.99 -64.34 57.98 -64 59 C-60.81175432 60.59412284 -57.37103338 60.10174735 -53.875 60.0625 C-52.74384766 60.05573242 -52.74384766 60.05573242 -51.58984375 60.04882812 C-49.72652873 60.03703499 -47.86325445 60.01909942 -46 60 C-45.99589111 58.96593018 -45.99178223 57.93186035 -45.98754883 56.86645508 C-45.96572133 53.01748302 -45.91139574 49.16952802 -45.84741211 45.32104492 C-45.82426334 43.65773288 -45.80984369 41.9942749 -45.80444336 40.33081055 C-45.7951302 37.93446249 -45.75409449 35.54039941 -45.70703125 33.14453125 C-45.71293022 32.03486748 -45.71293022 32.03486748 -45.71894836 30.90278625 C-45.60744743 26.92736783 -45.16953908 25.20211577 -42.58081055 22.1159668 C-41.72914307 21.41769775 -40.87747559 20.71942871 -40 20 C-39.34 19.34 -38.68 18.68 -38 18 C-32.72204521 15.28562325 -27.67973324 15.41128757 -22.0625 17 C-21.051875 17.33 -20.04125 17.66 -19 18 C-19 18.66 -19 19.32 -19 20 C-18.360625 20.12375 -17.72125 20.2475 -17.0625 20.375 C-16.0415625 20.684375 -16.0415625 20.684375 -15 21 C-13.79970092 23.40059817 -13.88540257 24.89360649 -13.90234375 27.5703125 C-13.90556641 28.46621094 -13.90878906 29.36210938 -13.91210938 30.28515625 C-13.92467773 31.69087891 -13.92467773 31.69087891 -13.9375 33.125 C-13.94201172 34.06988281 -13.94652344 35.01476562 -13.95117188 35.98828125 C-13.96297643 38.32558387 -13.97944241 40.66276061 -14 43 C-13.01 43 -12.02 43 -11 43 C-10.34 43.99 -9.68 44.98 -9 46 C-5.64496524 46.36558117 -5.64496524 46.36558117 -1.875 46.1875 C-0.59367187 46.16042969 0.68765625 46.13335937 2.0078125 46.10546875 C2.99523437 46.07066406 3.98265625 46.03585938 5 46 C7.16446993 41.67106014 6.1858486 35.85408139 6.18530273 31.04394531 C6.18747053 28.90408885 6.20557497 26.76476392 6.22460938 24.625 C6.34714403 14.62403955 6.34714403 14.62403955 4 5 C3.01 4.67 2.02 4.34 1 4 C0.3125 1.9375 0.3125 1.9375 0 0 Z " fill="#B1C1B4" transform="translate(173,83)"/>
<path d="M0 0 C0.33 0 0.66 0 1 0 C1.02465746 4.1117256 1.04283959 8.22342278 1.05493164 12.33520508 C1.0599708 13.73495228 1.06680216 15.1346942 1.07543945 16.53442383 C1.0875232 18.54245777 1.09269807 20.55052957 1.09765625 22.55859375 C1.10289307 23.76829834 1.10812988 24.97800293 1.11352539 26.22436523 C1 29 1 29 0 30 C-1.58154848 30.09594225 -3.16739125 30.1218796 -4.75184631 30.12025452 C-6.2936985 30.12231651 -6.2936985 30.12231651 -7.86669922 30.12442017 C-9.00389404 30.12082489 -10.14108887 30.11722961 -11.31274414 30.11352539 C-13.09786659 30.11374443 -13.09786659 30.11374443 -14.91905212 30.1139679 C-18.19163274 30.11338894 -21.46417107 30.10835981 -24.73674321 30.10139394 C-28.15338665 30.09515967 -31.57003083 30.09455654 -34.98667908 30.09336853 C-41.46069267 30.09025543 -47.93468946 30.08204233 -54.40869564 30.07201904 C-61.7773792 30.06085725 -69.14606355 30.05534729 -76.51475346 30.05032361 C-91.67651169 30.03985969 -106.83825417 30.02226066 -122 30 C-122.33 29.01 -122.66 28.02 -123 27 C-82.74 26.67 -42.48 26.34 -1 26 C-0.67 17.42 -0.34 8.84 0 0 Z " fill="#201E21" transform="translate(178,139)"/>
<path d="M0 0 C2.3655769 0.90081168 4.25986684 1.74536758 6.25390625 3.3046875 C7.31640625 6.5546875 7.31640625 6.5546875 7.25390625 9.3046875 C6.26390625 8.9746875 5.27390625 8.6446875 4.25390625 8.3046875 C4.25390625 7.6446875 4.25390625 6.9846875 4.25390625 6.3046875 C2.04792701 6.05387068 -0.16111954 5.82994899 -2.37109375 5.6171875 C-3.60085937 5.48957031 -4.830625 5.36195312 -6.09765625 5.23046875 C-11.4150971 5.33863939 -14.29660123 7.14581836 -18.38232422 10.41235352 C-21.36524523 14.06228795 -21.46132488 16.89650228 -21.41796875 21.4140625 C-21.4370932 22.56518524 -21.4370932 22.56518524 -21.456604 23.73956299 C-21.492805 26.17831763 -21.4956124 28.61568819 -21.49609375 31.0546875 C-21.51768923 33.50745414 -21.54609019 35.96001149 -21.57843018 38.41265869 C-21.59623254 39.9361474 -21.60648004 41.45974613 -21.60858154 42.9833374 C-21.63757152 48.19616527 -21.63757152 48.19616527 -22.74609375 49.3046875 C-25.38356131 49.43154556 -27.98318541 49.48989367 -30.62109375 49.4921875 C-31.72130859 49.51055664 -31.72130859 49.51055664 -32.84375 49.52929688 C-36.68172889 49.53978316 -38.47956449 49.48237367 -41.74609375 47.3046875 C-41.74609375 46.3146875 -41.74609375 45.3246875 -41.74609375 44.3046875 C-36.13609375 44.3046875 -30.52609375 44.3046875 -24.74609375 44.3046875 C-24.80410156 42.0153125 -24.86210938 39.7259375 -24.921875 37.3671875 C-24.9609744 35.1265 -24.99127352 32.88585187 -25.02075195 30.64501953 C-25.04575107 29.09894538 -25.07976277 27.55298768 -25.12329102 26.00732422 C-25.57234949 9.6404637 -25.57234949 9.6404637 -19.74609375 3.3046875 C-19.06546875 2.4796875 -18.38484375 1.6546875 -17.68359375 0.8046875 C-12.12246945 -2.03503555 -5.95055102 -1.5066829 0 0 Z " fill="#636960" transform="translate(149.74609375,94.6953125)"/>
<path d="M0 0 C0.99 0 1.98 0 3 0 C3.02465392 4.53897705 3.04283789 9.07791543 3.05493164 13.61694336 C3.0599714 15.16219766 3.0668032 16.70744716 3.07543945 18.25268555 C3.08752076 20.46925029 3.09323173 22.68575218 3.09765625 24.90234375 C3.10281754 25.5971434 3.10797882 26.29194305 3.11329651 27.00779724 C3.11349277 28.6722933 3.06189129 30.33665499 3 32 C1.34302756 33.65697244 -0.60999995 33.12958449 -2.89024353 33.13371277 C-4.47824516 33.14011024 -4.47824516 33.14011024 -6.09832764 33.14663696 C-7.85551117 33.14595718 -7.85551117 33.14595718 -9.64819336 33.14526367 C-11.48701836 33.15030159 -11.48701836 33.15030159 -13.36299133 33.15544128 C-16.73487854 33.16333717 -20.1067042 33.16662023 -23.47859645 33.16725707 C-26.28936711 33.16820455 -29.1001318 33.17188099 -31.91090018 33.17542917 C-38.54013116 33.18358134 -45.16934856 33.18601271 -51.79858398 33.18530273 C-58.64628677 33.18470176 -65.49391083 33.19525575 -72.34159368 33.2110464 C-78.21251324 33.22410425 -84.08340702 33.22948737 -89.95434099 33.22884732 C-93.46439506 33.22859181 -96.97437921 33.23147198 -100.48441887 33.24202538 C-104.39711484 33.25346751 -108.30970209 33.24897031 -112.22241211 33.24291992 C-113.39184357 33.24853943 -114.56127502 33.25415894 -115.7661438 33.25994873 C-117.35837517 33.253657 -117.35837517 33.253657 -118.98277283 33.24723816 C-119.90879775 33.24778293 -120.83482267 33.24832769 -121.78890896 33.24888897 C-124 33 -124 33 -126 31 C-126 30.01 -126 29.02 -126 28 C-125.01 28 -124.02 28 -123 28 C-122.67 28.66 -122.34 29.32 -122 30 C-81.74 30 -41.48 30 0 30 C0 20.1 0 10.2 0 0 Z " fill="#737373" transform="translate(178,138)"/>
<path d="M0 0 C4.8665386 0.41713188 6.79230533 2.45465326 10 6 C10.8353125 6.7425 10.8353125 6.7425 11.6875 7.5 C13.4033839 9.46101017 14.03666595 11.59166488 15 14 C15.495 14.474375 15.99 14.94875 16.5 15.4375 C20.34040224 19.43791899 20.25615281 25.02055028 20.265625 30.26171875 C20.26753845 30.93419144 20.2694519 31.60666412 20.27142334 32.29951477 C20.27277609 33.71050392 20.26914367 35.12150591 20.26074219 36.5324707 C20.24997831 38.69185133 20.2606936 40.85040969 20.2734375 43.00976562 C20.27211673 44.3854185 20.26955604 45.76107086 20.265625 47.13671875 C20.26336914 48.38155029 20.26111328 49.62638184 20.25878906 50.90893555 C20 54 20 54 18 57 C14.7421875 57.29296875 14.7421875 57.29296875 10.875 57.1875 C8.95300781 57.14689453 8.95300781 57.14689453 6.9921875 57.10546875 C6.00476563 57.07066406 5.01734375 57.03585938 4 57 C3.731875 56.360625 3.46375 55.72125 3.1875 55.0625 C2.11332248 52.66868314 2.11332248 52.66868314 -1 52 C4.94 52 10.88 52 17 52 C16.505 49.525 16.505 49.525 16 47 C15.9206075 44.86971994 15.89224074 42.73720378 15.90234375 40.60546875 C15.90556641 39.40341797 15.90878906 38.20136719 15.91210938 36.96289062 C15.92048828 35.71701172 15.92886719 34.47113281 15.9375 33.1875 C15.94201172 31.92228516 15.94652344 30.65707031 15.95117188 29.35351562 C15.96293749 26.2356289 15.97937728 23.11783867 16 20 C15.34 19.67 14.68 19.34 14 19 C13.375 16.9375 13.375 16.9375 13 15 C11.35 15 9.7 15 8 15 C8 12.36 8 9.72 8 7 C7.05125 7.020625 6.1025 7.04125 5.125 7.0625 C2 7 2 7 0 6 C0 4.02 0 2.04 0 0 Z " fill="#39D412" transform="translate(160,73)"/>
<path d="M0 0 C0.33 0 0.66 0 1 0 C1.33 8.91 1.66 17.82 2 27 C16.52 27 31.04 27 46 27 C46.495 28.98 46.495 28.98 47 31 C45.42926468 32.57073532 43.84637782 32.16369307 41.66381836 32.20532227 C40.7429393 32.22526749 39.82206024 32.24521271 38.87327576 32.26576233 C37.37172691 32.29083107 37.37172691 32.29083107 35.83984375 32.31640625 C34.82024063 32.33718735 33.80063751 32.35796844 32.75013733 32.37937927 C29.47932952 32.44498852 26.20843863 32.50381234 22.9375 32.5625 C20.72590272 32.60567442 18.51431397 32.64928834 16.30273438 32.69335938 C10.86857363 32.80151203 5.43435376 32.90050073 0 33 C0 22.11 0 11.22 0 0 Z " fill="#09C9CD" transform="translate(50,133)"/>
<path d="M0 0 C0 0.66 0 1.32 0 2 C0.66 2 1.32 2 2 2 C3.47265625 3.828125 3.47265625 3.828125 5.0625 6.25 C5.58972656 7.03890625 6.11695312 7.8278125 6.66015625 8.640625 C8.86558858 12.52424345 9.13807849 15.76043031 9.125 20.1875 C9.12757812 21.06792969 9.13015625 21.94835937 9.1328125 22.85546875 C9 25 9 25 8 26 C6.1875 26.1328125 6.1875 26.1328125 4 26.125 C3.278125 26.12757812 2.55625 26.13015625 1.8125 26.1328125 C0 26 0 26 -1 25 C-1.2395097 22.07857309 -1.42347037 19.17645982 -1.5625 16.25 C-1.60568359 15.43789062 -1.64886719 14.62578125 -1.69335938 13.7890625 C-1.8951533 9.85568259 -2.05605606 5.93994008 -2 2 C-2.66 1.67 -3.32 1.34 -4 1 C-2 0 -2 0 0 0 Z " fill="#67F605" transform="translate(66,54)"/>
<path d="M0 0 C6.27 0 12.54 0 19 0 C19 4.95 19 9.9 19 15 C19.99 15.33 20.98 15.66 22 16 C18.22618181 15.47585858 15.50846488 14.97299541 13 12 C12.65552639 8.92160882 12.81944064 6.114649 13 3 C8.545 3.495 8.545 3.495 4 4 C3.96261719 5.48113281 3.92523438 6.96226562 3.88671875 8.48828125 C3.82106646 10.42971314 3.75461887 12.37111826 3.6875 14.3125 C3.66494141 15.28896484 3.64238281 16.26542969 3.61914062 17.27148438 C3.5659668 18.67817383 3.5659668 18.67817383 3.51171875 20.11328125 C3.48553467 20.97735596 3.45935059 21.84143066 3.43237305 22.73168945 C3 25 3 25 0 28 C0 18.76 0 9.52 0 0 Z " fill="#03E1E2" transform="translate(51,133)"/>
<path d="M0 0 C2.3984375 2.03125 2.3984375 2.03125 4 4 C3.05898437 3.95359375 2.11796875 3.9071875 1.1484375 3.859375 C-8.24837236 3.46804557 -8.24837236 3.46804557 -16 8 C-16.99 8 -17.98 8 -19 8 C-21.13050583 13.96541633 -21.42869131 19.78074983 -21.75390625 26.0859375 C-22 29 -22 29 -23 30 C-25.86267567 30.07325168 -28.700719 30.09238205 -31.5625 30.0625 C-32.36880859 30.05798828 -33.17511719 30.05347656 -34.00585938 30.04882812 C-36.00393756 30.03700518 -38.00197783 30.01906914 -40 30 C-40.33 29.01 -40.66 28.02 -41 27 C-35.06 27 -29.12 27 -23 27 C-23.1572217 21.6746822 -23.1572217 21.6746822 -23.36035156 16.35107422 C-23.43836285 11.07776276 -22.45602717 8.19525053 -19 4 C-13.77575744 -1.09028763 -6.92201463 -1.2162713 0 0 Z " fill="#2C3626" transform="translate(95,99)"/>
<path d="M0 0 C3.76854223 1.25618074 4.07958456 2.66014706 6 6 C6.66 6.33 7.32 6.66 8 7 C10.01578931 11.65240095 10.28103814 15.99431437 10.23046875 20.98828125 C10.22978142 22.1039875 10.22978142 22.1039875 10.2290802 23.24223328 C10.22607562 24.80286266 10.21824354 26.36348952 10.20581055 27.92407227 C10.18742307 30.32253515 10.185302 32.72061423 10.18554688 35.11914062 C10.18063593 36.6380242 10.17480946 38.15690514 10.16796875 39.67578125 C10.16685593 40.39550613 10.1657431 41.11523102 10.16459656 41.85676575 C10.11609488 46.88390512 10.11609488 46.88390512 9 48 C7.60825641 48.09862603 6.21163857 48.1307898 4.81640625 48.1328125 C3.97142578 48.13410156 3.12644531 48.13539063 2.25585938 48.13671875 C1.36705078 48.13285156 0.47824219 48.12898438 -0.4375 48.125 C-1.32244141 48.12886719 -2.20738281 48.13273437 -3.11914062 48.13671875 C-3.96541016 48.13542969 -4.81167969 48.13414062 -5.68359375 48.1328125 C-6.85233032 48.13112061 -6.85233032 48.13112061 -8.04467773 48.12939453 C-10 48 -10 48 -12 47 C-11.67 45.68 -11.34 44.36 -11 43 C-10.34 43.99 -9.68 44.98 -9 46 C-5.64496524 46.36558117 -5.64496524 46.36558117 -1.875 46.1875 C-0.59367188 46.16042969 0.68765625 46.13335937 2.0078125 46.10546875 C2.99523437 46.07066406 3.98265625 46.03585938 5 46 C7.16446993 41.67106014 6.1858486 35.85408139 6.18530273 31.04394531 C6.18747053 28.90408885 6.20557497 26.76476392 6.22460938 24.625 C6.34714403 14.62403955 6.34714403 14.62403955 4 5 C3.01 4.67 2.02 4.34 1 4 C0.3125 1.9375 0.3125 1.9375 0 0 Z " fill="#BDB9BA" transform="translate(173,83)"/>
<path d="M0 0 C3.18988738 1.03940151 6.08239499 2.34963757 9 4 C8.67 5.32 8.34 6.64 8 8 C8 7.34 8 6.68 8 6 C1.65989844 3.61887589 -4.28439058 3.11682741 -11 4 C-14.10861514 6.18854423 -14.10861514 6.18854423 -16 9 C-17.98 9.99 -17.98 9.99 -20 11 C-20.33 23.21 -20.66 35.42 -21 48 C-26.28 48 -31.56 48 -37 48 C-37 47.34 -37 46.68 -37 46 C-32.05 46 -27.1 46 -22 46 C-22.05800781 43.6384375 -22.11601563 41.276875 -22.17578125 38.84375 C-22.21487565 36.53356273 -22.24517771 34.22341358 -22.2746582 31.91308594 C-22.29966413 30.31851464 -22.33368099 28.72405635 -22.37719727 27.12988281 C-22.82597801 10.25572695 -22.82597801 10.25572695 -17 4 C-16.319375 3.175 -15.63875 2.35 -14.9375 1.5 C-10.10142944 -0.96948284 -5.30898528 -0.69713948 0 0 Z " fill="#2B372A" transform="translate(147,94)"/>
<path d="M0 0 C0.33 0 0.66 0 1 0 C1.02465746 4.1117256 1.04283959 8.22342278 1.05493164 12.33520508 C1.0599708 13.73495228 1.06680216 15.1346942 1.07543945 16.53442383 C1.0875232 18.54245777 1.09269807 20.55052957 1.09765625 22.55859375 C1.10289307 23.76829834 1.10812988 24.97800293 1.11352539 26.22436523 C1 29 1 29 0 30 C-1.58154848 30.09594225 -3.16739125 30.1218796 -4.75184631 30.12025452 C-6.2936985 30.12231651 -6.2936985 30.12231651 -7.86669922 30.12442017 C-9.00389404 30.12082489 -10.14108887 30.11722961 -11.31274414 30.11352539 C-13.09786659 30.11374443 -13.09786659 30.11374443 -14.91905212 30.1139679 C-18.19163274 30.11338894 -21.46417107 30.10835981 -24.73674321 30.10139394 C-28.15338665 30.09515967 -31.57003083 30.09455654 -34.98667908 30.09336853 C-41.46069267 30.09025543 -47.93468946 30.08204233 -54.40869564 30.07201904 C-61.7773792 30.06085725 -69.14606355 30.05534729 -76.51475346 30.05032361 C-91.67651169 30.03985969 -106.83825417 30.02226066 -122 30 C-122 29.67 -122 29.34 -122 29 C-82.4 28.67 -42.8 28.34 -2 28 C-0.65893595 25.3178719 -0.78549581 23.11601968 -0.68359375 20.1171875 C-0.64169922 18.95058594 -0.59980469 17.78398437 -0.55664062 16.58203125 C-0.51732422 15.35871094 -0.47800781 14.13539063 -0.4375 12.875 C-0.37272461 11.02841797 -0.37272461 11.02841797 -0.30664062 9.14453125 C-0.20031296 6.09647147 -0.09828219 3.0483281 0 0 Z " fill="#3D3D3D" transform="translate(178,139)"/>
<path d="M0 0 C0.66 0 1.32 0 2 0 C2.04945386 4.35992871 2.08574488 8.71970862 2.10986328 13.07983398 C2.11991821 14.56293583 2.13356404 16.04601788 2.15087891 17.52905273 C2.17515006 19.66134531 2.18648799 21.79337569 2.1953125 23.92578125 C2.20578613 25.20880127 2.21625977 26.49182129 2.22705078 27.8137207 C2 31 2 31 0 34 C-3.2578125 34.29296875 -3.2578125 34.29296875 -7.125 34.1875 C-9.04699219 34.14689453 -9.04699219 34.14689453 -11.0078125 34.10546875 C-11.99523437 34.07066406 -12.98265625 34.03585938 -14 34 C-14.66 32.68 -15.32 31.36 -16 30 C-10.72 30 -5.44 30 0 30 C0 20.1 0 10.2 0 0 Z " fill="#3E5237" transform="translate(178,96)"/>
<path d="M0 0 C1 1 1 1 1.0625 4.5625 C1.041875 5.696875 1.02125 6.83125 1 8 C0.03513672 7.75443359 0.03513672 7.75443359 -0.94921875 7.50390625 C-4.92840171 6.84665324 -8.7881437 6.893647 -12.8125 6.9375 C-13.60076172 6.94201172 -14.38902344 6.94652344 -15.20117188 6.95117188 C-17.13414761 6.96288688 -19.06708393 6.98082002 -21 7 C-21.33 5.68 -21.66 4.36 -22 3 C-19.69 3 -17.38 3 -15 3 C-15 2.34 -15 1.68 -15 1 C-10.01657457 -0.02224111 -5.07454515 -0.3632306 0 0 Z " fill="#4AE703" transform="translate(151,88)"/>
<path d="M0 0 C-0.33 1.32 -0.66 2.64 -1 4 C-9.08025395 6.00218682 -19.45138128 8.50770596 -27 4 C-26.01 3.67 -25.02 3.34 -24 3 C-24.99 2.34 -25.98 1.68 -27 1 C-17.98865693 0.3668316 -9.04028922 -0.1723784 0 0 Z " fill="#1A93A4" transform="translate(155,146)"/>
<path d="M0 0 C2.475 0.495 2.475 0.495 5 1 C4.2575 1.53625 3.515 2.0725 2.75 2.625 C-1.47126742 6.27064004 -4.11238237 9.67086803 -4.609375 15.3046875 C-4.6784022 16.8272821 -4.7211084 18.35111537 -4.75 19.875 C-4.8325 22.55625 -4.915 25.2375 -5 28 C-11.93 28 -18.86 28 -26 28 C-26 27.67 -26 27.34 -26 27 C-20.72 27 -15.44 27 -10 27 C-10 26.34 -10 25.68 -10 25 C-14.95 25 -19.9 25 -25 25 C-20.39240177 21.92826785 -15.37188833 21.66115881 -9.9375 22.4375 C-9.298125 22.623125 -8.65875 22.80875 -8 23 C-8.33 24.32 -8.66 25.64 -9 27 C-8.01 27 -7.02 27 -6 27 C-6 22.71 -6 18.42 -6 14 C-6.66 13.67 -7.32 13.34 -8 13 C-7.34 12.01 -6.68 11.02 -6 10 C-5.60612212 7.67612053 -5.26513915 5.34206251 -5 3 C-4.360625 2.87625 -3.72125 2.7525 -3.0625 2.625 C-2.381875 2.41875 -1.70125 2.2125 -1 2 C-0.67 1.34 -0.34 0.68 0 0 Z " fill="#70F214" transform="translate(77,98)"/>
<path d="M0 0 C0.33 0.66 0.66 1.32 1 2 C3.52733235 2.65555119 3.52733235 2.65555119 6 3 C6 3.99 6 4.98 6 6 C8.64 6.66 11.28 7.32 14 8 C14 25.82 14 43.64 14 62 C13.67 62 13.34 62 13 62 C13 44.84 13 27.68 13 10 C9.7 9.34 6.4 8.68 3 8 C2.67 6.35 2.34 4.7 2 3 C1.01 3 0.02 3 -1 3 C-0.67 2.01 -0.34 1.02 0 0 Z " fill="#8CEA4C" transform="translate(37,64)"/>
<path d="M0 0 C0.33 0.66 0.66 1.32 1 2 C1.99 2 2.98 2 4 2 C4.33 3.65 4.66 5.3 5 7 C8.3 7.66 11.6 8.32 15 9 C15 26.16 15 43.32 15 61 C14.67 61 14.34 61 14 61 C14 44.17 14 27.34 14 10 C10.04 10 6.08 10 2 10 C1.67 7.69 1.34 5.38 1 3 C0.34 3 -0.32 3 -1 3 C-0.67 2.01 -0.34 1.02 0 0 Z " fill="#E4F0E1" transform="translate(35,65)"/>
<path d="M0 0 C10.89 0 21.78 0 33 0 C33 0.66 33 1.32 33 2 C31.35 2.33 29.7 2.66 28 3 C30.64 3.33 33.28 3.66 36 4 C32.39821412 6.40119059 29.49133631 6.43771322 25.3125 6.625 C24.61060547 6.66367188 23.90871094 6.70234375 23.18554688 6.7421875 C21.45745345 6.8362334 19.72876325 6.9191968 18 7 C17.67 5.35 17.34 3.7 17 2 C11.39 1.67 5.78 1.34 0 1 C0 0.67 0 0.34 0 0 Z " fill="#0DC4CA" transform="translate(71,145)"/>
<path d="M0 0 C0 0.66 0 1.32 0 2 C-0.66 2 -1.32 2 -2 2 C-2.28875 2.721875 -2.5775 3.44375 -2.875 4.1875 C-3.558867 5.8971675 -4.27475067 7.5950688 -5.04663086 9.2668457 C-6.16510162 12.47331949 -6.30394895 15.15012659 -6.37890625 18.54296875 C-6.41306641 19.78111328 -6.44722656 21.01925781 -6.48242188 22.29492188 C-6.50884766 23.57947266 -6.53527344 24.86402344 -6.5625 26.1875 C-6.6222395 28.74358776 -6.68583844 31.29958921 -6.75390625 33.85546875 C-6.77783447 34.98621826 -6.8017627 36.11696777 -6.82641602 37.28198242 C-7 40 -7 40 -8 42 C-7.34 42.33 -6.68 42.66 -6 43 C-7.32 42.67 -8.64 42.34 -10 42 C-9.67 30.78 -9.34 19.56 -9 8 C-8.01 7.67 -7.02 7.34 -6 7 C-5.64587656 5.67203709 -5.31478446 4.33783393 -5 3 C-2.53571429 0 -2.53571429 0 0 0 Z " fill="#D5D6D6" transform="translate(138,102)"/>
<path d="M0 0 C0.99 0 1.98 0 3 0 C2.690625 0.598125 2.38125 1.19625 2.0625 1.8125 C-0.29334154 6.662762 -0.29076033 11.36440122 -0.4296875 16.63867188 C-0.5234375 18.62890625 -0.5234375 18.62890625 -1 22 C-4.15314785 24.10209857 -4.86103081 24.2434761 -8.44921875 24.1953125 C-9.72055664 24.18564453 -9.72055664 24.18564453 -11.01757812 24.17578125 C-11.89865234 24.15902344 -12.77972656 24.14226562 -13.6875 24.125 C-14.58017578 24.11597656 -15.47285156 24.10695312 -16.39257812 24.09765625 C-18.59532314 24.07409748 -20.79752588 24.04120329 -23 24 C-23.33 22.35 -23.66 20.7 -24 19 C-23.34 19 -22.68 19 -22 19 C-21.67 19.66 -21.34 20.32 -21 21 C-15.39 21 -9.78 21 -4 21 C-3.896875 18.834375 -3.79375 16.66875 -3.6875 14.4375 C-3.3075931 8.92326309 -2.64578787 4.83143872 0 0 Z " fill="#525552" transform="translate(76,107)"/>
<path d="M0 0 C1.65 0 3.3 0 5 0 C4.67 0.99 4.34 1.98 4 3 C3.01 2.67 2.02 2.34 1 2 C1 7.61 1 13.22 1 19 C-0.32 18.67 -1.64 18.34 -3 18 C-3.66 18.33 -4.32 18.66 -5 19 C-7.125 18.0625 -7.125 18.0625 -9 17 C-7.68 16.01 -6.36 15.02 -5 14 C-17.87 13.505 -17.87 13.505 -31 13 C-31 12.67 -31 12.34 -31 12 C-16.15 11.505 -16.15 11.505 -1 11 C-0.67 7.37 -0.34 3.74 0 0 Z " fill="#218B9C" transform="translate(159,133)"/>
<path d="M0 0 C2.39521426 2.31243035 2.67704699 4.18314499 2.80883789 7.45581055 C2.80360107 8.57125244 2.79836426 9.68669434 2.79296875 10.8359375 C2.78974609 12.04443359 2.78652344 13.25292969 2.78320312 14.49804688 C2.77482422 15.76068359 2.76644531 17.02332031 2.7578125 18.32421875 C2.75330078 19.59845703 2.74878906 20.87269531 2.74414062 22.18554688 C2.73234123 25.33598439 2.71587847 28.48632824 2.6953125 31.63671875 C2.3653125 31.63671875 2.0353125 31.63671875 1.6953125 31.63671875 C1.67025635 30.96092773 1.6452002 30.28513672 1.61938477 29.58886719 C1.50320508 26.52130195 1.38057813 23.45402717 1.2578125 20.38671875 C1.21849609 19.32324219 1.17917969 18.25976562 1.13867188 17.1640625 C1.09677734 16.13925781 1.05488281 15.11445312 1.01171875 14.05859375 C0.97506104 13.1159668 0.93840332 12.17333984 0.90063477 11.20214844 C0.71592022 8.89420498 0.33669638 6.85531351 -0.3046875 4.63671875 C-0.9646875 4.63671875 -1.6246875 4.63671875 -2.3046875 4.63671875 C-2.6346875 3.97671875 -2.9646875 3.31671875 -3.3046875 2.63671875 C-4.2946875 3.13171875 -4.2946875 3.13171875 -5.3046875 3.63671875 C-5.3046875 2.64671875 -5.3046875 1.65671875 -5.3046875 0.63671875 C-7.0337649 0.60946534 -8.76296926 0.59020888 -10.4921875 0.57421875 C-11.45511719 0.56261719 -12.41804688 0.55101563 -13.41015625 0.5390625 C-16.16045263 0.63185253 -18.62948341 1.0156019 -21.3046875 1.63671875 C-20.3046875 -0.36328125 -20.3046875 -0.36328125 -17.9921875 -1.55078125 C-12.21440412 -2.82385216 -5.23116042 -3.09436438 0 0 Z " fill="#CFDFC6" transform="translate(102.3046875,107.36328125)"/>
<path d="M0 0 C0.2475 0.598125 0.495 1.19625 0.75 1.8125 C2.16444091 4.28777159 3.72860188 5.33430804 6 7 C6 7.66 6 8.32 6 9 C6.31802943 10.66965451 6.64984951 12.33678518 7 14 C4.36 13.34 1.72 12.68 -1 12 C-1 11.01 -1 10.02 -1 9 C-2.65 8.67 -4.3 8.34 -6 8 C-5.65120368 4.74456771 -4.97866739 3.98126893 -2.4375 1.75 C-1.633125 1.1725 -0.82875 0.595 0 0 Z " fill="#7CF21A" transform="translate(44,58)"/>
<path d="M0 0 C1.28132813 0.10183594 2.56265625 0.20367187 3.8828125 0.30859375 C4.87023437 0.39238281 5.85765625 0.47617188 6.875 0.5625 C6.875 0.8925 6.875 1.2225 6.875 1.5625 C4.235 1.5625 1.595 1.5625 -1.125 1.5625 C-1.125 2.2225 -1.125 2.8825 -1.125 3.5625 C-9.09990128 4.89165021 -17.06686719 4.65051359 -25.125 4.5625 C-25.125 3.5725 -25.125 2.5825 -25.125 1.5625 C-23.99320312 1.50191406 -22.86140625 1.44132813 -21.6953125 1.37890625 C-20.21352855 1.29450083 -18.7317584 1.20985283 -17.25 1.125 C-16.50363281 1.08568359 -15.75726563 1.04636719 -14.98828125 1.00585938 C-9.5857987 0.68949778 -5.48464943 -0.44874404 0 0 Z " fill="#1796A7" transform="translate(137.125,160.4375)"/>
<path d="M0 0 C13.37670177 -0.10890351 26.66119695 -0.09848966 40 1 C40 1.33 40 1.66 40 2 C33.565 2.495 33.565 2.495 27 3 C27.66 3.66 28.32 4.32 29 5 C27 7 27 7 24.8359375 7.1953125 C23.61777344 7.16050781 23.61777344 7.16050781 22.375 7.125 C21.55773437 7.10695312 20.74046875 7.08890625 19.8984375 7.0703125 C19.27195312 7.04710937 18.64546875 7.02390625 18 7 C19.32 6.67 20.64 6.34 22 6 C22 5.34 22 4.68 22 4 C20.02 4 18.04 4 16 4 C16 3.01 16 2.02 16 1 C10.72 1 5.44 1 0 1 C0 0.67 0 0.34 0 0 Z " fill="#16A2AF" transform="translate(104,145)"/>
<path d="M0 0 C0.5625 1.9375 0.5625 1.9375 1 4 C0.67 4.33 0.34 4.66 0 5 C-0.14756998 7.50716838 -0.2349234 9.99039049 -0.28125 12.5 C-0.29965942 13.25087891 -0.31806885 14.00175781 -0.33703613 14.77539062 C-0.39596304 17.18351187 -0.44870868 19.59170471 -0.5 22 C-0.5674463 25.16682444 -0.6411142 28.33341084 -0.71875 31.5 C-0.73232544 32.23541016 -0.74590088 32.97082031 -0.7598877 33.72851562 C-0.88719819 38.88719819 -0.88719819 38.88719819 -2 40 C-3.56172745 40.08685603 -5.12729344 40.10702219 -6.69140625 40.09765625 C-7.63564453 40.09443359 -8.57988281 40.09121094 -9.55273438 40.08789062 C-10.54595703 40.07951172 -11.53917969 40.07113281 -12.5625 40.0625 C-13.55958984 40.05798828 -14.55667969 40.05347656 -15.58398438 40.04882812 C-18.05604849 40.03700007 -20.52799518 40.02051849 -23 40 C-23.66 38.02 -24.32 36.04 -25 34 C-24.01 34 -23.02 34 -22 34 C-21.67 34.99 -21.34 35.98 -21 37 C-17.81175432 38.59412284 -14.37103338 38.10174735 -10.875 38.0625 C-9.74384766 38.05573242 -9.74384766 38.05573242 -8.58984375 38.04882812 C-6.72652873 38.03703499 -4.86325445 38.01909942 -3 38 C-2.98018066 36.95545654 -2.96036133 35.91091309 -2.93994141 34.8347168 C-2.86387886 30.9599595 -2.77516272 27.08557743 -2.68261719 23.21118164 C-2.64433007 21.53417366 -2.60947669 19.85708362 -2.578125 18.17993164 C-2.53246821 15.76939568 -2.4744759 13.35942443 -2.4140625 10.94921875 C-2.39673569 9.82407112 -2.39673569 9.82407112 -2.37905884 8.67619324 C-2.27304541 4.93872287 -2.12380918 3.18571377 0 0 Z " fill="#99A1A1" transform="translate(130,105)"/>
<path d="M0 0 C0.74056641 0.00451172 1.48113281 0.00902344 2.24414062 0.01367188 C4.05862899 0.02537825 5.87307534 0.04331102 7.6875 0.0625 C7.6875 1.0525 7.6875 2.0425 7.6875 3.0625 C2.11682723 4.65412079 -2.52351581 5.26924944 -8.3125 5.0625 C-8.3125 4.7325 -8.3125 4.4025 -8.3125 4.0625 C-10.9525 3.7325 -13.5925 3.4025 -16.3125 3.0625 C-11.14791525 -0.3805565 -6.05193138 -0.07030841 0 0 Z " fill="#0EB4BE" transform="translate(112.3125,145.9375)"/>
<path d="M0 0 C3.253199 3.253199 2.99353258 6.97756553 3.02172852 11.43505859 C2.95103149 13.27318115 2.95103149 13.27318115 2.87890625 15.1484375 C2.85529526 15.80582916 2.83168427 16.46322083 2.80735779 17.14053345 C2.73141555 19.2189477 2.64709817 21.29692192 2.5625 23.375 C2.50920952 24.79294796 2.45646973 26.21091673 2.40429688 27.62890625 C2.27691943 31.08629406 2.13819654 34.54296038 2 38 C-4.27 38 -10.54 38 -17 38 C-17 37.67 -17 37.34 -17 37 C-11.06 37 -5.12 37 1 37 C0.505 34.525 0.505 34.525 0 32 C-0.08080894 29.50500229 -0.10760161 27.00800494 -0.09765625 24.51171875 C-0.0962413 23.80852005 -0.09482635 23.10532135 -0.09336853 22.3808136 C-0.08780109 20.14966456 -0.07525475 17.91861836 -0.0625 15.6875 C-0.05748079 14.16862125 -0.05291862 12.64974091 -0.04882812 11.13085938 C-0.03784236 7.42053988 -0.02060034 3.71027999 0 0 Z " fill="#39BE24" transform="translate(176,88)"/>
<path d="M0 0 C2.875 0.1875 2.875 0.1875 6 1 C7.25 3.5 7.25 3.5 8 6 C8.66 6.33 9.32 6.66 10 7 C10.6328125 9.87109375 10.6328125 9.87109375 11.125 13.4375 C11.29257813 14.61183594 11.46015625 15.78617188 11.6328125 16.99609375 C12 20 12 20 12 22 C12.66 22.66 13.32 23.32 14 24 C12.35 24 10.7 24 9 24 C8.91363281 23.07058594 8.82726562 22.14117187 8.73828125 21.18359375 C7.87705884 13.6064168 7.00098537 8.79061464 2 3 C2 2.34 2 1.68 2 1 C1.34 0.67 0.68 0.34 0 0 Z " fill="#D8DCD6" transform="translate(66,55)"/>
<path d="M0 0 C0.33 0 0.66 0 1 0 C1.33 8.91 1.66 17.82 2 27 C3.32 27 4.64 27 6 27 C6 27.66 6 28.32 6 29 C8.64 29 11.28 29 14 29 C10 31 10 31 0 33 C0 22.11 0 11.22 0 0 Z " fill="#07D8D3" transform="translate(50,133)"/>
<path d="M0 0 C3.63 0 7.26 0 11 0 C11.33 0.66 11.66 1.32 12 2 C15.02934491 2.65772428 15.02934491 2.65772428 18 3 C18 3.66 18 4.32 18 5 C12.06 5 6.12 5 0 5 C0 3.35 0 1.7 0 0 Z " fill="#2ED706" transform="translate(159,120)"/>
<path d="M0 0 C0.33 0.99 0.66 1.98 1 3 C0.01 4.485 0.01 4.485 -1 6 C-1.28588245 9.35097659 -1.41425211 12.65946771 -1.47851562 16.01953125 C-1.64976727 20.5054889 -2.33016477 23.36902408 -5 27 C-4.34 27 -3.68 27 -3 27 C-3 29.64 -3 32.28 -3 35 C-3.33 35 -3.66 35 -4 35 C-4.67258667 32.66836622 -5.33847444 30.3347961 -6 28 C-6.2475 27.2575 -6.495 26.515 -6.75 25.75 C-7 24 -7 24 -5 21 C-4.65671143 17.21948029 -4.55739039 13.4578662 -4.44140625 9.6640625 C-3.95506103 5.62696677 -2.89736603 2.89736603 0 0 Z " fill="#E6E6E6" transform="translate(80,109)"/>
<path d="M0 0 C0.33 0 0.66 0 1 0 C1.103125 1.2375 1.20625 2.475 1.3125 3.75 C1.77630612 7.29749005 2.24427663 9.52935146 5 12 C8.08777172 13.28008262 8.08777172 13.28008262 11 14 C10.67 14.66 10.34 15.32 10 16 C8.04233719 16.08082094 6.08373272 16.13910778 4.125 16.1875 C2.48917969 16.23970703 2.48917969 16.23970703 0.8203125 16.29296875 C-0.11039063 16.19628906 -1.04109375 16.09960938 -2 16 C-2.66 15.01 -3.32 14.02 -4 13 C-3.34 11.68 -2.68 10.36 -2 9 C-1.34 9 -0.68 9 0 9 C0 6.03 0 3.06 0 0 Z " fill="#48DF0F" transform="translate(144,56)"/>
<path d="M0 0 C0 0.99 0 1.98 0 3 C0.66 3 1.32 3 2 3 C2.33 2.67 2.66 2.34 3 2 C3.99 2 4.98 2 6 2 C7.09658936 5.28976808 6.79953138 6.71303767 6 10 C6.66 10 7.32 10 8 10 C8.33 11.65 8.66 13.3 9 15 C8.34 14.67 7.68 14.34 7 14 C7 13.34 7 12.68 7 12 C6.13375 11.62875 6.13375 11.62875 5.25 11.25 C2.67060021 9.81700012 0.93878408 8.21575324 -1 6 C-1 5.34 -1 4.68 -1 4 C-3.475 3.01 -3.475 3.01 -6 2 C-2.25 0 -2.25 0 0 0 Z " fill="#F8FAF9" transform="translate(169,72)"/>
<path d="M0 0 C0.33 0 0.66 0 1 0 C1 11.55 1 23.1 1 35 C-3.393125 35.0309375 -3.393125 35.0309375 -7.875 35.0625 C-8.79651855 35.071604 -9.71803711 35.08070801 -10.66748047 35.09008789 C-11.39338379 35.09258545 -12.11928711 35.09508301 -12.8671875 35.09765625 C-13.98262939 35.10551147 -13.98262939 35.10551147 -15.12060547 35.11352539 C-17 35 -17 35 -19 34 C-18.67 32.68 -18.34 31.36 -18 30 C-17.34 30.99 -16.68 31.98 -16 33 C-12.64496524 33.36558117 -12.64496524 33.36558117 -8.875 33.1875 C-7.59367188 33.16042969 -6.31234375 33.13335937 -4.9921875 33.10546875 C-4.00476563 33.07066406 -3.01734375 33.03585938 -2 33 C-0.5235764 30.0471528 -0.77727061 27.31551017 -0.68359375 24.0234375 C-0.66281265 23.33819 -0.64203156 22.6529425 -0.62062073 21.94692993 C-0.55519815 19.75638931 -0.49627446 17.56572811 -0.4375 15.375 C-0.39430782 13.8906125 -0.3506933 12.40623722 -0.30664062 10.921875 C-0.19952447 7.28137916 -0.09823638 3.64074749 0 0 Z " fill="#777D7A" transform="translate(180,96)"/>
<path d="M0 0 C3.09827377 0.55986351 5.60965704 1.56721274 8.375 3.0625 C7.818125 3.18625 7.26125 3.31 6.6875 3.4375 C4.29029254 4.02370306 4.29029254 4.02370306 1.8125 5.1875 C-0.625 6.0625 -0.625 6.0625 -3.625 5.0625 C-6.79166667 6.89583333 -6.79166667 6.89583333 -8.625 10.0625 C-8.625 9.4025 -8.625 8.7425 -8.625 8.0625 C-9.285 7.7325 -9.945 7.4025 -10.625 7.0625 C-7.76758238 2.56907073 -5.67865676 -0.60071741 0 0 Z " fill="#7EF329" transform="translate(55.625,49.9375)"/>
<path d="M0 0 C7.92 0 15.84 0 24 0 C23.67 0.66 23.34 1.32 23 2 C21.80761719 2.03738281 20.61523438 2.07476562 19.38671875 2.11328125 C17.820281 2.17894032 16.25387616 2.24538768 14.6875 2.3125 C13.90181641 2.33505859 13.11613281 2.35761719 12.30664062 2.38085938 C11.54931641 2.41630859 10.79199219 2.45175781 10.01171875 2.48828125 C8.96697388 2.52755737 8.96697388 2.52755737 7.90112305 2.56762695 C5.50250465 3.11314553 4.6521458 4.23514786 3 6 C2.34 6 1.68 6 1 6 C0.67 4.02 0.34 2.04 0 0 Z " fill="#63F407" transform="translate(72,96)"/>
<path d="M0 0 C0.99 0.33 1.98 0.66 3 1 C4.19493974 4.03173281 4.10493955 7.02459427 4.0625 10.25 C4.05347656 11.14203125 4.04445313 12.0340625 4.03515625 12.953125 C4.02355469 13.62859375 4.01195313 14.3040625 4 15 C2.68 15.33 1.36 15.66 0 16 C0 10.72 0 5.44 0 0 Z " fill="#66725D" transform="translate(71,64)"/>
<path d="M0 0 C3.08793255 2.0586217 3.47838607 2.8553312 5 6 C5.66 6.33 6.32 6.66 7 7 C7.4140625 9.50390625 7.4140625 9.50390625 7.625 12.5625 C7.69976562 13.57441406 7.77453125 14.58632812 7.8515625 15.62890625 C7.92503906 16.80259766 7.92503906 16.80259766 8 18 C4.48930633 16.82976878 3.84330484 16.13621444 2 13 C1.26953125 9.765625 1.26953125 9.765625 0.8125 6.25 C0.65394531 5.07953125 0.49539062 3.9090625 0.33203125 2.703125 C0.22246094 1.81109375 0.11289063 0.9190625 0 0 Z " fill="#B9D8AC" transform="translate(143,51)"/>
<path d="M0 0 C6.93 0 13.86 0 21 0 C21 1.65 21 3.3 21 5 C21.99 5.33 22.98 5.66 24 6 C24 8.31 24 10.62 24 13 C22.68 13 21.36 13 20 13 C20 9.04 20 5.08 20 1 C13.4 1 6.8 1 0 1 C0 0.67 0 0.34 0 0 Z " fill="#29CDC7" transform="translate(50,132)"/>
<path d="M0 0 C1.65 0 3.3 0 5 0 C5 4.29 5 8.58 5 13 C4.01 13 3.02 13 2 13 C2.33 11.68 2.66 10.36 3 9 C1.68 8.67 0.36 8.34 -1 8 C-0.67 5.36 -0.34 2.72 0 0 Z " fill="#66F703" transform="translate(66,112)"/>
<path d="M0 0 C0.94934202 2.92713788 1.23176473 4.42831368 0.0625 7.3125 C-0.4634375 8.1478125 -0.4634375 8.1478125 -1 9 C-1.8971875 7.576875 -1.8971875 7.576875 -2.8125 6.125 C-4.81562526 2.86035803 -4.81562526 2.86035803 -8 1 C-10.73872955 0.54227937 -10.73872955 0.54227937 -13.6875 0.375 C-14.68136719 0.30023438 -15.67523438 0.22546875 -16.69921875 0.1484375 C-17.45847656 0.09945312 -18.21773438 0.05046875 -19 0 C-19 -0.33 -19 -0.66 -19 -1 C-16.9174133 -1.19561869 -14.83388144 -1.38119313 -12.75 -1.5625 C-11.58984375 -1.66691406 -10.4296875 -1.77132812 -9.234375 -1.87890625 C-5.57761834 -2.01581381 -3.23596839 -1.6179842 0 0 Z " fill="#5DDC15" transform="translate(103,99)"/>
<path d="M0 0 C1.65 0.33 3.3 0.66 5 1 C4.2575 1.53625 3.515 2.0725 2.75 2.625 C-1.36417562 6.17815167 -4.09495604 9.58216654 -4.609375 15.0859375 C-4.67492331 16.51489062 -4.72155172 17.94482718 -4.75 19.375 C-4.79447266 20.47908203 -4.79447266 20.47908203 -4.83984375 21.60546875 C-4.90988033 23.4030743 -4.95728119 25.2015379 -5 27 C-5.33 27 -5.66 27 -6 27 C-6 22.71 -6 18.42 -6 14 C-6.66 13.67 -7.32 13.34 -8 13 C-7.34 12.01 -6.68 11.02 -6 10 C-5.60612212 7.67612053 -5.26513915 5.34206251 -5 3 C-4.360625 2.87625 -3.72125 2.7525 -3.0625 2.625 C-2.0415625 2.315625 -2.0415625 2.315625 -1 2 C-0.67 1.34 -0.34 0.68 0 0 Z " fill="#61DC12" transform="translate(77,98)"/>
<path d="M0 0 C3.94727588 -0.17942163 6.5980513 -0.09350689 10 2 C9.67 3.32 9.34 4.64 9 6 C6.6875 6.6875 6.6875 6.6875 4 7 C1.76223872 5.48151913 1.12180806 4.38757109 0.3125 1.8125 C0.209375 1.214375 0.10625 0.61625 0 0 Z " fill="#59F103" transform="translate(98,80)"/>
<path d="M0 0 C0 0.66 0 1.32 0 2 C0.66 2 1.32 2 2 2 C4.70153548 4.93309567 5.98102598 6.58327348 6.03515625 10.625 C5.77777281 13.10716362 5.44632816 15.54519513 5 18 C4.67 18 4.34 18 4 18 C4 15.03 4 12.06 4 9 C3.01 9.33 2.02 9.66 1 10 C-1 8 -1 8 -1.5 4.9375 C-1.665 3.968125 -1.83 2.99875 -2 2 C-2.66 1.67 -3.32 1.34 -4 1 C-2 0 -2 0 0 0 Z " fill="#70E91B" transform="translate(66,54)"/>
<path d="M0 0 C0.33 0 0.66 0 1 0 C1 11 1 22 1 33 C0.34 33.66 -0.32 34.32 -1 35 C-1.99 34.67 -2.98 34.34 -4 34 C-4 32.68 -4 31.36 -4 30 C-3.01 29.34 -2.02 28.68 -1 28 C-0.48853802 25.09386566 -0.48853802 25.09386566 -0.48828125 21.6796875 C-0.45283203 20.42285156 -0.41738281 19.16601562 -0.38085938 17.87109375 C-0.35830078 16.55238281 -0.33574219 15.23367187 -0.3125 13.875 C-0.27933471 12.53512241 -0.24484578 11.19527689 -0.20898438 9.85546875 C-0.12626673 6.5703967 -0.05719307 3.28559968 0 0 Z " fill="#DFE3E2" transform="translate(183,102)"/>
<path d="M0 0 C0.99 0 1.98 0 3 0 C2.67 1.32 2.34 2.64 2 4 C-1.63 4.33 -5.26 4.66 -9 5 C-9 4.34 -9 3.68 -9 3 C-9.66 2.67 -10.32 2.34 -11 2 C-7.3518945 -1.6481055 -4.84781184 -0.96956237 0 0 Z " fill="#ECFAE5" transform="translate(139,65)"/>
<path d="M0 0 C0.33 0 0.66 0 1 0 C1 7.92 1 15.84 1 24 C1.66 24 2.32 24 3 24 C3 24.66 3 25.32 3 26 C7.95 26 12.9 26 18 26 C18 26.33 18 26.66 18 27 C12.06 27 6.12 27 0 27 C0 18.09 0 9.18 0 0 Z " fill="#56F00B" transform="translate(106,112)"/>
<path d="M0 0 C1.56041016 -0.00773437 1.56041016 -0.00773437 3.15234375 -0.015625 C6.01971346 0.24609465 7.68556435 0.65795411 10.0625 2.25 C10.8125 4.375 10.8125 4.375 11.0625 6.25 C10.1653125 5.5075 10.1653125 5.5075 9.25 4.75 C2.50959834 1.57804628 -5.10233138 2.81971782 -11.9375 5.25 C-8.10869137 1.23886715 -5.57662322 -0.02757292 0 0 Z " fill="#707370" transform="translate(90.9375,101.75)"/>
<path d="M0 0 C1.99954746 -0.04254356 4.00041636 -0.04080783 6 0 C7 1 7 1 7 8 C1.72 7.34 -3.56 6.68 -9 6 C-9 5.67 -9 5.34 -9 5 C-5.7 4.67 -2.4 4.34 1 4 C0.67 2.68 0.34 1.36 0 0 Z " fill="#43D014" transform="translate(145,88)"/>
<path d="M0 0 C0.33 0 0.66 0 1 0 C1.33 12.54 1.66 25.08 2 38 C1.01 37.34 0.02 36.68 -1 36 C-1.1953745 33.2264107 -1.20701158 30.69211485 -1.07421875 27.9296875 C-1.04777786 27.13345978 -1.02133698 26.33723206 -0.99409485 25.51687622 C-0.90618446 22.96883368 -0.79709023 20.42219337 -0.6875 17.875 C-0.62425632 16.14979015 -0.56238976 14.42452922 -0.50195312 12.69921875 C-0.35062057 8.46538728 -0.18028256 4.23269358 0 0 Z " fill="#D3F0F7" transform="translate(49,132)"/>
<path d="M0 0 C0.33 0.66 0.66 1.32 1 2 C3.52733235 2.65555119 3.52733235 2.65555119 6 3 C6 3.99 6 4.98 6 6 C8.31 6.66 10.62 7.32 13 8 C13 8.66 13 9.32 13 10 C9.7 9.34 6.4 8.68 3 8 C2.67 6.35 2.34 4.7 2 3 C1.01 3 0.02 3 -1 3 C-0.67 2.01 -0.34 1.02 0 0 Z " fill="#A5AF9B" transform="translate(37,64)"/>
<path d="M0 0 C4.62 0 9.24 0 14 0 C13.67 0.99 13.34 1.98 13 3 C9.04 3 5.08 3 1 3 C0.67 2.01 0.34 1.02 0 0 Z " fill="#223024" transform="translate(164,126)"/>
<path d="M0 0 C-3.08888522 2.05925681 -3.70935927 2.2390374 -7.1875 2.125 C-9.0746875 2.063125 -9.0746875 2.063125 -11 2 C-11 2.66 -11 3.32 -11 4 C-11.78375 4.12375 -12.5675 4.2475 -13.375 4.375 C-16.14057822 4.79117993 -16.14057822 4.79117993 -18 7 C-18 6.01 -18 5.02 -18 4 C-12.70954425 -1.14349864 -7.03522405 -0.40981888 0 0 Z " fill="#181C17" transform="translate(94,99)"/>
<path d="M0 0 C0.598125 0.53625 1.19625 1.0725 1.8125 1.625 C-0.88173094 2.97211547 -2.87312957 2.5768591 -5.875 2.4375 C-11.60861569 2.36160376 -14.58687437 3.27909045 -19.1875 6.625 C-18.5275 5.305 -17.8675 3.985 -17.1875 2.625 C-16.1975 2.625 -15.2075 2.625 -14.1875 2.625 C-14.1875 1.965 -14.1875 1.305 -14.1875 0.625 C-4.19187637 -1.80826039 -4.19187637 -1.80826039 0 0 Z " fill="#384034" transform="translate(97.1875,100.375)"/>
<path d="M0 0 C0.99 0.33 1.98 0.66 3 1 C3 2.32 3 3.64 3 5 C8.94 5 14.88 5 21 5 C21 5.33 21 5.66 21 6 C14.07 6 7.14 6 0 6 C0 4.02 0 2.04 0 0 Z " fill="#7DB0B1" transform="translate(50,126)"/>
<path d="M0 0 C0.33 0 0.66 0 1 0 C1 9.57 1 19.14 1 29 C0.01 28.67 -0.98 28.34 -2 28 C-1.67 27.34 -1.34 26.68 -1 26 C-0.84621148 24.04225931 -0.75028537 22.07982648 -0.68359375 20.1171875 C-0.62075195 18.36728516 -0.62075195 18.36728516 -0.55664062 16.58203125 C-0.51732422 15.35871094 -0.47800781 14.13539063 -0.4375 12.875 C-0.39431641 11.64394531 -0.35113281 10.41289062 -0.30664062 9.14453125 C-0.20031296 6.09647147 -0.09828219 3.0483281 0 0 Z " fill="#293C3D" transform="translate(178,139)"/>
<path d="M0 0 C0 0.66 0 1.32 0 2 C1.65 2.33 3.3 2.66 5 3 C5 3.99 5 4.98 5 6 C0.39146203 5.27991594 -3.67237409 3.68704061 -8 2 C-8 1.67 -8 1.34 -8 1 C-5.23735711 0.40267181 -2.83967231 0 0 0 Z " fill="#F0FAEA" transform="translate(64,49)"/>
<path d="M0 0 C1.75570312 0.04060547 1.75570312 0.04060547 3.546875 0.08203125 C4.43890625 0.11683594 5.3309375 0.15164062 6.25 0.1875 C6.25 0.5175 6.25 0.8475 6.25 1.1875 C4.92935547 1.31705078 4.92935547 1.31705078 3.58203125 1.44921875 C-3.90247344 2.04041665 -3.90247344 2.04041665 -10.0625 5.8125 C-10.619375 6.59625 -11.17625 7.38 -11.75 8.1875 C-11.43700953 5.29233813 -11.1966196 3.64270844 -9.125 1.53125 C-5.9481835 -0.26615933 -3.6243045 -0.10872914 0 0 Z " fill="#595758" transform="translate(142.75,96.8125)"/>
<path d="M0 0 C2.3125 -0.3125 2.3125 -0.3125 5 0 C7.63560713 3.27178817 8 4.72068147 8 9 C7.34 9 6.68 9 6 9 C5.67 7.68 5.34 6.36 5 5 C3.35 5 1.7 5 0 5 C0 3.35 0 1.7 0 0 Z " fill="#2BCF0A" transform="translate(168,83)"/>
<path d="M0 0 C1.2162878 3.64886339 0.33156695 4.61830244 -1.23046875 7.94921875 C-2.5679902 11.51367946 -2.75177061 15.22520135 -3 19 C-3.33 19 -3.66 19 -4 19 C-4.08150744 16.93816367 -4.1394194 14.87538651 -4.1875 12.8125 C-4.22230469 11.66394531 -4.25710937 10.51539062 -4.29296875 9.33203125 C-3.9490805 5.42087553 -2.7940149 2.7940149 0 0 Z " fill="#DBDADA" transform="translate(80,109)"/>
<path d="M0 0 C0.99 0 1.98 0 3 0 C2.690625 0.598125 2.38125 1.19625 2.0625 1.8125 C-0.00356257 6.06615823 -0.29817619 10.04666723 -0.5625 14.6875 C-0.60568359 15.38939453 -0.64886719 16.09128906 -0.69335938 16.81445312 C-0.7991736 18.54275206 -0.90006581 20.2713511 -1 22 C-1.33 22 -1.66 22 -2 22 C-2.05416741 19.27056463 -2.09375225 16.54221436 -2.125 13.8125 C-2.14175781 13.04357422 -2.15851563 12.27464844 -2.17578125 11.48242188 C-2.21266851 7.1850566 -1.9958504 3.92098169 0 0 Z " fill="#737373" transform="translate(76,107)"/>
<path d="M0 0 C1.32 0 2.64 0 4 0 C4 0.99 4 1.98 4 3 C3.01 3.33 2.02 3.66 1 4 C-2.16666667 5.83333333 -2.16666667 5.83333333 -4 9 C-4 8.34 -4 7.68 -4 7 C-4.66 6.67 -5.32 6.34 -6 6 C-4 4 -2 2 0 0 Z " fill="#78F518" transform="translate(51,51)"/>
<path d="M0 0 C1.98 0 3.96 0 6 0 C6 2.64 6 5.28 6 8 C4.68 7.34 3.36 6.68 2 6 C2 4.68 2 3.36 2 2 C1.34 2 0.68 2 0 2 C0 1.34 0 0.68 0 0 Z " fill="#36DB07" transform="translate(154,96)"/>
<path d="M0 0 C2.31 0.66 4.62 1.32 7 2 C7 2.99 7 3.98 7 5 C7.66 5 8.32 5 9 5 C9.33 6.65 9.66 8.3 10 10 C9.34 9.67 8.68 9.34 8 9 C8 8.34 8 7.68 8 7 C7.4225 6.773125 6.845 6.54625 6.25 6.3125 C3.4336339 4.66961977 1.91922886 2.60466773 0 0 Z " fill="#D2E3D1" transform="translate(168,77)"/>
<path d="M0 0 C1.98 0 3.96 0 6 0 C5.2575 0.721875 4.515 1.44375 3.75 2.1875 C1.30709485 4.68592573 -0.8681047 7.23643202 -3 10 C-2.979375 9.05125 -2.95875 8.1025 -2.9375 7.125 C-2.77448174 4.09333717 -2.77448174 4.09333717 -4 2 C-3.01 2 -2.02 2 -1 2 C-0.67 1.34 -0.34 0.68 0 0 Z " fill="#57D619" transform="translate(129,94)"/>
<path d="M0 0 C0.33 0.66 0.66 1.32 1 2 C1.66 2.33 2.32 2.66 3 3 C2 6 2 6 -0.0625 7.1875 C-0.701875 7.455625 -1.34125 7.72375 -2 8 C-2 7.34 -2 6.68 -2 6 C-3.65 6 -5.3 6 -7 6 C-6.67 5.34 -6.34 4.68 -6 4 C-4.02 4.495 -4.02 4.495 -2 5 C-1.34 3.35 -0.68 1.7 0 0 Z " fill="#66E923" transform="translate(116,80)"/>
<path d="M0 0 C0.66 0 1.32 0 2 0 C2.66 0.99 3.32 1.98 4 3 C6.77262255 3.38394667 9.34323528 3.60342248 12.125 3.6875 C12.87910156 3.72166016 13.63320312 3.75582031 14.41015625 3.79101562 C16.27291201 3.87354278 18.13643326 3.93844711 20 4 C20 4.33 20 4.66 20 5 C13.73 5 7.46 5 1 5 C0.67 3.35 0.34 1.7 0 0 Z " fill="#797872" transform="translate(52,126)"/>
<path d="M0 0 C0 0.66 0 1.32 0 2 C-5.28 1.67 -10.56 1.34 -16 1 C-16 0.67 -16 0.34 -16 0 C-10.39436958 -0.82622671 -5.57710648 -1.06795656 0 0 Z " fill="#11B1C2" transform="translate(104,162)"/>
<path d="M0 0 C0.99 0.33 1.98 0.66 3 1 C3 1.66 3 2.32 3 3 C4.9587043 2.85923685 6.91696093 2.7122324 8.875 2.5625 C10.51082031 2.44068359 10.51082031 2.44068359 12.1796875 2.31640625 C14.94728971 2.16998297 14.94728971 2.16998297 17 1 C16.67 1.99 16.34 2.98 16 4 C11.38 4 6.76 4 2 4 C1.34 2.68 0.68 1.36 0 0 Z " fill="#504C4B" transform="translate(162,126)"/>
<path d="M0 0 C2.80844958 2.27771895 3.91735478 3.36197888 4.390625 7.015625 C4.34421875 8.08296875 4.2978125 9.1503125 4.25 10.25 C4.21390625 11.32765625 4.1778125 12.4053125 4.140625 13.515625 C4.09421875 14.33546875 4.0478125 15.1553125 4 16 C3.67 16 3.34 16 3 16 C2.67 13.03 2.34 10.06 2 7 C1.67 7 1.34 7 1 7 C0.67 4.69 0.34 2.38 0 0 Z " fill="#EDEDE9" transform="translate(154,104)"/>
<path d="M0 0 C0 0.66 0 1.32 0 2 C-0.66 2 -1.32 2 -2 2 C-2.28875 2.721875 -2.5775 3.44375 -2.875 4.1875 C-3.91666667 6.79166667 -4.95833333 9.39583333 -6 12 C-6.33 12 -6.66 12 -7 12 C-6.51058824 4.65882353 -6.51058824 4.65882353 -4.0625 1.5 C-2 0 -2 0 0 0 Z " fill="#E6E6E6" transform="translate(138,102)"/>
<path d="M0 0 C4.10047683 1.36682561 4.9534939 3.25983367 7 7 C7.25 10.375 7.25 10.375 7 13 C5.0549 10.08235 4.54723683 8.37462715 4 5 C3.01 4.67 2.02 4.34 1 4 C0.3125 1.9375 0.3125 1.9375 0 0 Z " fill="#A5B3A2" transform="translate(173,83)"/>
<path d="M0 0 C0.99 0.33 1.98 0.66 3 1 C3 3.31 3 5.62 3 8 C2.01 8 1.02 8 0 8 C0 5.36 0 2.72 0 0 Z " fill="#646868" transform="translate(71,137)"/>
<path d="M0 0 C1 3 1 3 0 6 C-0.66 6 -1.32 6 -2 6 C-2.33 8.31 -2.66 10.62 -3 13 C-3.33 13 -3.66 13 -4 13 C-4.5497272 7.36529617 -2.95047835 4.61012242 0 0 Z " fill="#182D13" transform="translate(129,99)"/>
<path d="M0 0 C0 0.33 0 0.66 0 1 C-5.94 1.495 -5.94 1.495 -12 2 C-12.33 2.99 -12.66 3.98 -13 5 C-13.99 4.67 -14.98 4.34 -16 4 C-11.34158975 -1.14031476 -6.42886252 -0.40532233 0 0 Z " fill="#0E1D11" transform="translate(146,94)"/>
<path d="M0 0 C-0.33 0.99 -0.66 1.98 -1 3 C-1.66 3 -2.32 3 -3 3 C-3.66 4.32 -4.32 5.64 -5 7 C-5.33 7 -5.66 7 -6 7 C-6.1875 4.625 -6.1875 4.625 -6 2 C-3 0 -3 0 0 0 Z " fill="#ECFBDE" transform="translate(51,50)"/>
<path d="M0 0 C0 0.66 0 1.32 0 2 C0.66 2 1.32 2 2 2 C2.66 3.65 3.32 5.3 4 7 C2.02 6.01 0.04 5.02 -2 4 C-2 3.34 -2 2.68 -2 2 C-2.66 1.67 -3.32 1.34 -4 1 C-2 0 -2 0 0 0 Z " fill="#7DED2D" transform="translate(66,54)"/>
<path d="M0 0 C0.99 0 1.98 0 3 0 C3.33 1.98 3.66 3.96 4 6 C2.68 6 1.36 6 0 6 C-1.125 2.25 -1.125 2.25 0 0 Z " fill="#D0DBD4" transform="translate(158,126)"/>
<path d="M0 0 C2.375 0.25 2.375 0.25 5 1 C6.3125 3.0625 6.3125 3.0625 7 5 C4.69 4.34 2.38 3.68 0 3 C0 2.01 0 1.02 0 0 Z " fill="#42533E" transform="translate(43,67)"/>
<path d="M0 0 C0.99 0 1.98 0 3 0 C3.33 0.99 3.66 1.98 4 3 C4.66 3.33 5.32 3.66 6 4 C6 4.66 6 5.32 6 6 C4.35 5.67 2.7 5.34 1 5 C0.67 3.35 0.34 1.7 0 0 Z " fill="#99B09A" transform="translate(105,139)"/>
<path d="M0 0 C1.65 0.33 3.3 0.66 5 1 C2.38485683 3.12038635 -0.19637616 5.13091744 -3 7 C-2.38722388 4.03824877 -1.74627478 2.61941217 0 0 Z " fill="#66D71C" transform="translate(77,98)"/>
<path d="M0 0 C0.99 0.66 1.98 1.32 3 2 C2.67 3.65 2.34 5.3 2 7 C0.68 6.67 -0.64 6.34 -2 6 C-1.34 4.02 -0.68 2.04 0 0 Z " fill="#EAF9E1" transform="translate(112,78)"/>
<path d="M0 0 C0.33 1.65 0.66 3.3 1 5 C-1.91517292 3.92598892 -3.77810176 3.22189824 -6 1 C-3.92446352 0.4465236 -2.15634036 0 0 0 Z " fill="#E7F5E8" transform="translate(169,72)"/>
<path d="M0 0 C0.33 0.66 0.66 1.32 1 2 C-2.81756824 3.37432457 -6.07255329 2.67975039 -10 2 C-6.5980513 -0.09350689 -3.94727588 -0.17942163 0 0 Z " fill="#53E318" transform="translate(140,69)"/>
<path d="M0 0 C0.99 0.33 1.98 0.66 3 1 C3 2.65 3 4.3 3 6 C2.01 6 1.02 6 0 6 C0 4.02 0 2.04 0 0 Z " fill="#C5D2C8" transform="translate(50,126)"/>
<path d="M0 0 C4.75 0.875 4.75 0.875 7 2 C7 2.66 7 3.32 7 4 C4.03 3.505 4.03 3.505 1 3 C0.67 2.01 0.34 1.02 0 0 Z " fill="#77E93A" transform="translate(101,80)"/>
<path d="M0 0 C1.85776765 3.13498292 2.20140476 5.37471432 2 9 C0.5 7.8125 0.5 7.8125 -1 6 C-1.25 3.375 -1.25 3.375 -1 1 C-0.67 0.67 -0.34 0.34 0 0 Z " fill="#BFCABC" transform="translate(147,59)"/>
</svg>
